<?xml version="1.0" encoding="utf-8"?>
<!-- Generator: Adobe Illustrator 19.0.0, SVG Export Plug-In . SVG Version: 6.00 Build 0)  -->
<svg version="1.1" id="Layer_1" xmlns="http://www.w3.org/2000/svg" xmlns:xlink="http://www.w3.org/1999/xlink" x="0px" y="0px"
	 viewBox="0 0 842.8 390.9" style="enable-background:new 0 0 842.8 390.9;" xml:space="preserve">
<style type="text/css">
	.st0{display:none;}
	.st1{display:inline;fill:#D9E0F2;}
	.st2{fill:#448940;}
	.st3{fill:#F4F4F4;}
</style>
<g id="XMLID_51_" class="st0">
	<polygon id="XMLID_5_" class="st1" points="75.1,-142.2 78.5,-289.4 29.8,-289.4 36.6,-100.5 170.4,-100.5 170.4,-147 	"/>
	<polygon id="XMLID_2_" class="st1" points="200.8,-100.5 245.4,-100.5 245.4,-171.3 309.4,-167.7 309.4,-212.7 245.1,-209.7 
		244.8,-250.7 315.1,-245 314.4,-291.7 193.8,-290.7 	"/>
	<path id="XMLID_3_" class="st1" d="M480.5-227.5c0,0-17.4-26.4-54.8-21.7s-40.4,43.6-40.4,58.1c0,14.2,9.4,48.5,47.5,48.5
		c32.7,0,34.1-29.7,34.1-29.7l-30.4,3.7l-1-36.8l76-5.7l1,30c0,0,2.3,83.3-81.4,83.3c-92.9,0-106-87.4-87.6-134.7
		c16.6-42.6,51.9-59.1,83-60.2c28.9-1,46.9,1,77.5,22.7L480.5-227.5z"/>
	<path id="XMLID_18_" class="st1" d="M680.5-227.5c0,0-17.4-26.4-54.8-21.7c-37.4,4.7-40.4,43.6-40.4,58.1
		c0,14.2,9.4,48.5,47.5,48.5c32.7,0,34.1-29.7,34.1-29.7l-30.4,3.7l-1-36.8l76-5.7l1,30c0,0,2.3,83.3-81.4,83.3
		c-92.9,0-106-87.4-87.6-134.7c16.6-42.6,51.9-59.1,83-60.2c28.9-1,46.9,1,77.5,22.7L680.5-227.5z"/>
</g>
<g id="XMLID_4_">
	<path id="XMLID_7_" class="st2" d="M63,268.9c20.7-7.6,47.3-12.2,76.3-12.2c31,0,59.2,5.2,80.4,13.8C259,244.3,285,198.8,285,147
		C285,65.8,221.2,0,142.5,0S0,65.8,0,147C0,197.8,25,242.5,63,268.9z"/>
	<polygon id="XMLID_23_" class="st3" points="119.5,193.3 126,47.1 72.2,47.1 79,236 212.8,236 212.8,184.4 	"/>
	<polygon id="XMLID_22_" class="st2" points="317.4,233.1 365,233.1 365,162.3 429,166.9 429,118.9 364.7,123.9 364.4,82.9 
		434.7,89.6 434,41.9 310.4,42.9 	"/>
	<path id="XMLID_21_" class="st2" d="M604.9,106.1c0,0-17.4-26.4-54.8-21.7s-40.4,43.6-40.4,58.1c0,14.2,9.4,48.5,47.5,48.5
		c32.7,0,34.1-29.7,34.1-29.7l-30.4,3.7l-1-36.8l76-5.7l1,30c0,0,2.3,83.3-81.4,83.3c-92.9,0-106-87.4-87.6-134.7
		c16.6-42.6,51.9-59.1,83-60.2c28.9-1,46.9,1,77.5,22.7L604.9,106.1z"/>
	<path id="XMLID_20_" class="st2" d="M810.9,106.1c0,0-17.4-26.4-54.8-21.7s-40.4,43.6-40.4,58.1c0,14.2,9.4,48.5,47.5,48.5
		c32.7,0,34.1-29.7,34.1-29.7l-30.4,3.7l-1-36.8l76-5.7l1,30c0,0,2.3,83.3-81.4,83.3c-92.9,0-106-87.4-87.6-134.7
		c16.6-42.6,51.9-59.1,83-60.2c28.9-1,46.9,1,77.5,22.7L810.9,106.1z"/>
	<g id="XMLID_52_">
		<path id="XMLID_8_" class="st2" d="M84.7,351.1c1.1-6.1,2.2-10.9,3.3-14.4l9.6,0.9c-1.4,3.8-2.5,8.4-3.4,13.7
			c-1,6.1-1.3,10.4-1.1,12.9c0.1,3,1.2,4.5,3.4,4.6c3.9,0.3,9-0.3,15.2-1.9l1.2,8.8c-4.8,1.4-10.4,2-16.7,1.9c-4.9,0-8.2-1.1-10-3.1
			c-1.9-1.8-2.8-5.4-2.8-10.6C83.5,360.3,83.9,356,84.7,351.1z"/>
		<path id="XMLID_10_" class="st2" d="M135.2,349.6l9-0.3l0.6,27.3l-8.3,0.4v-3c-2.4,2.4-5.1,3.6-8,3.5c-3.8,0.2-7-0.9-9.6-3.4
			c-1.8-2.1-2.7-5.3-2.7-9.5c-0.1-4.4,0.3-9.5,1.3-15.2l8.6,0.3c-0.5,3-0.9,6.2-1.2,9.6c-0.3,3.7-0.2,6.3,0.2,7.9
			c0.7,1.7,2.1,2.6,4,2.7c2.3,0,4-0.9,5-2.8C135.6,364.2,136,358.4,135.2,349.6z"/>
		<path id="XMLID_12_" class="st2" d="M150.6,377.2l0.8-26.4l9.2,0.4l-0.9,26.4L150.6,377.2z M154.8,337.1c1.5-0.5,2.9-0.6,4.1-0.1
			c1.3,0.6,2.2,1.9,2.8,3.7c0.4,2.1,0.1,3.8-1.1,5.3c-1.3,1.5-3.2,1.9-5.7,1.2c-2-0.5-3.3-1.7-4.1-3.7c-0.3-1.1-0.2-2.2,0.3-3.2
			C152,338.7,153.2,337.6,154.8,337.1z"/>
		<path id="XMLID_15_" class="st2" d="M175.8,350c1.6-0.5,3.4-0.8,5.4-0.8c2,0,4.3,0.5,6.8,1.5v-1l9-0.5c0.5,5.7,0.9,10.3,1.1,14
			c0.1,1.1,0.2,4.1,0.3,9.3c0.1,5-0.5,8.7-1.9,11c-1.2,2.4-3.6,4.3-7,5.6c-2.5,0.9-5.8,1.2-9.8,0.9c-3.6-0.3-7.1-1.2-10.3-2.9
			l2.6-7.6c3.2,1.5,6,2.4,8.5,2.5c3.4,0.1,6-0.6,7.6-2c1.4-1.4,2.1-4,2.1-7.8c-0.5,0.9-1.5,2-3.1,3.2c-2.3,1.6-4.9,2.4-7.8,2.3
			c-2.7-0.1-5.2-0.9-7.7-2.4c-1.7-1.2-3.2-3.1-4.5-5.9c-0.8-2.1-1.1-4.9-0.8-8.4c0.6-3.1,1.8-5.6,3.7-7.6
			C172,351.8,173.9,350.7,175.8,350z M188.9,359.9c-0.3-3.6-0.5-5.9-0.6-7.1l-1.8,6.1c-1.9-1.1-4-1.5-6.4-1.2
			c-1.9,0.5-3.3,1.6-4.3,3.2c-0.8,2-0.8,4,0.1,6.2c1.1,2.2,2.9,3.3,5.5,3.2c2.4-0.2,4.3-1.2,5.7-3
			C188.3,365.4,188.9,363,188.9,359.9z"/>
		<path id="XMLID_19_" class="st2" d="M204.4,377.2l0.8-26.4l9.2,0.4l-0.9,26.4L204.4,377.2z M208.7,337.1c1.5-0.5,2.9-0.6,4.1-0.1
			c1.3,0.6,2.2,1.9,2.8,3.7c0.4,2.1,0.1,3.8-1.1,5.3c-1.3,1.5-3.2,1.9-5.7,1.2c-2-0.5-3.3-1.7-4.1-3.7c-0.3-1.1-0.2-2.2,0.3-3.2
			C205.8,338.7,207.1,337.6,208.7,337.1z"/>
		<path id="XMLID_26_" class="st2" d="M229,335.1l-1.6,11.4h-5.8l0.1-11.3L229,335.1z"/>
		<path id="XMLID_28_" class="st2" d="M236.6,350.4c1.2-0.5,3.1-0.8,5.6-1.1c3.9-0.3,6.8,0.1,8.8,1.2c1.7,0.9,2.9,2.7,3.4,5.2
			c0.2,1.5,0,3.3-0.6,5.5l-7.5-1.2c0.3-0.8,0.4-1.5,0.4-2c0-0.9-0.4-1.4-1-1.7c-0.9-0.4-2.5-0.4-4.8,0c-2,0.3-3.5,0.9-4.4,1.7
			c-0.7,0.6-0.9,1.1-0.6,1.5c0.1,0.3,0.8,0.6,2.4,0.8c0.8,0.1,2.6,0.6,5.5,1.3c2.9,0.7,5.3,1.6,7.1,2.5c2.8,1.5,3.9,3.8,3.4,6.8
			c-0.6,2.4-2,4.1-4.2,5c-2.1,0.8-4.7,1.4-7.8,1.7c-2.6,0.1-6.5,0-11.5-0.3l-0.6-7.3c1.8,0.2,4,0.4,6.5,0.5c2,0.2,4.4,0.1,7.3-0.2
			c0.8-0.1,1.4-0.3,1.7-0.6c0.1-0.5-1.2-1-3.7-1.5c-3.9-0.7-7.1-1.5-9.6-2.3c-2-0.6-3.6-1.8-4.6-3.6c-0.6-1.4-0.6-2.8-0.1-4.3
			c0.6-1.6,1.8-3.2,3.5-4.7C232.7,351.9,234.6,350.9,236.6,350.4z"/>
		<path id="XMLID_30_" class="st2" d="M277,338l31.1-1.4l0.3,8.4l-31.1,1.4L277,338z M280.8,347.6l9.3-0.2l0.2,6.4h15v8.3h-14.5
			l0.4,15.2c-1.8,0.1-4.9,0.1-9.3,0.2C281.8,375.4,281.4,365.4,280.8,347.6z"/>
		<path id="XMLID_33_" class="st2" d="M325.2,349.6c3-0.3,5.6-0.3,7.8,0.1c1.7,0.3,4.2,1.3,7.3,3.1l-3.5,6.6l2.4-0.5l3.3,17
			l-8.1,1.2l-0.7-4.6c-1.7,2.3-3.9,3.8-6.6,4.6c-3.8,0.7-6.9,0.5-9.5-0.6c-2.6-1.3-4.4-3.3-5.5-5.9c-0.8-3-0.8-6,0-9.1
			c1.1-3.3,2.5-5.7,4.3-7.3C318.5,352,321.5,350.5,325.2,349.6z M328.6,357.3c-2.3,0.2-4.3,1.1-5.9,2.5c-1.6,1.5-2.5,3.4-2.7,5.8
			c0.1,3.1,1.2,4.7,3.5,4.9c2.1,0.2,4-0.7,5.5-2.8c1.3-1.8,1.9-4.2,1.7-7.2l5-0.9C333.8,358.2,331.4,357.4,328.6,357.3z"/>
		<path id="XMLID_36_" class="st2" d="M361.8,349.7c2.1-0.5,4.3-0.5,6.5-0.2c2.6,0.5,4.9,1.7,6.7,3.5c1.7,1.9,2.5,5.3,2.5,10.4
			c-0.1,5.1-0.4,9.9-0.8,14.3l-8.9-0.3c0.8-7.7,1-13,0.7-16c-0.5-1.8-1.5-3-3-3.5c-2.2-0.5-4-0.1-5.5,1.2c-1.2,1.3-1.9,3.7-2,7
			c0,2.4,0.1,6.1,0.3,11.3l-9,0.3c-0.3-5.4-0.7-14.6-1.3-27.6c1.6-0.1,4.5-0.3,8.7-0.5l0.1,3C358.3,351,360,350.1,361.8,349.7z"/>
		<path id="XMLID_53_" class="st2" d="M423.3,336.7c5.1,0,8.8,1,11.1,3l-4,7.6c-4.3-2.9-8.8-3.3-13.5-1.2c-4.5,2.7-7,6.1-7.7,10.4
			c-0.8,5.9,1.1,9.8,5.5,11.8c3,1,6.3,0.7,9.9-0.9c2.4-1.7,3.8-4.5,4-8.5l-12.2,0.8l-0.6-7.7l22.6-1.3l0.6,7.7l-2.2,0.1l0.6,18.8
			l-8.3,0.4l-0.2-5c-2.9,3.2-7.3,4.5-13.4,4c-7.1-0.8-11.8-4-14-9.4c-1.9-5.5-2-10.6-0.3-15.5c1.9-5.6,5.8-9.9,11.7-13
			C416.2,337.2,419.7,336.5,423.3,336.7z"/>
		<path id="XMLID_55_" class="st2" d="M456.2,349.6c3-0.3,5.6-0.3,7.8,0.1c1.7,0.3,4.2,1.3,7.3,3.1l-3.5,6.6l2.4-0.5l3.3,17
			l-8.1,1.2l-0.7-4.6c-1.7,2.3-3.9,3.8-6.6,4.6c-3.8,0.7-6.9,0.5-9.5-0.6c-2.6-1.3-4.4-3.3-5.5-5.9c-0.8-3-0.8-6,0-9.1
			c1.1-3.3,2.5-5.7,4.3-7.3C449.6,352,452.5,350.5,456.2,349.6z M459.7,357.3c-2.3,0.2-4.3,1.1-5.9,2.5c-1.6,1.5-2.5,3.4-2.7,5.8
			c0.1,3.1,1.2,4.7,3.5,4.9c2.1,0.2,4-0.7,5.5-2.8c1.3-1.8,1.9-4.2,1.7-7.2l5-0.9C464.8,358.2,462.5,357.4,459.7,357.3z"/>
		<path id="XMLID_58_" class="st2" d="M492.2,349.4c1.7-0.3,3.6-0.2,5.5,0.3c2.2,0.8,3.9,2,5.2,3.6c1.3-1.4,2.6-2.4,4-3
			c1.8-0.9,4.2-1.1,7.1-0.7c3,0.6,5.3,2,6.8,4.2c1.2,2.2,1.7,5.2,1.5,8.9c-0.1,4.2-0.3,9.1-0.8,14.8l-8.9-0.1
			c0.5-8,0.8-13.2,0.7-15.6c-0.1-0.7-0.3-1.6-0.7-2.6c-1-1.3-2.4-1.6-4.4-1.1c-1.5,0.6-2.3,2.2-2.4,4.8c-0.2,5.3-0.3,10.2-0.4,14.7
			l-8.7-0.1c0-5.7,0.1-10.4,0.1-14.2c0.1-2.9-0.5-4.7-2-5.3c-1.5-0.5-3-0.3-4.3,0.7c-1.2,0.8-1.7,3.2-1.5,6.9
			c0.1,4.7,0.3,8.6,0.5,11.6l-9.1,0.2l-1.3-27.5l8.9-0.5l0.1,2.1C489.2,350.5,490.6,349.7,492.2,349.4z"/>
		<path id="XMLID_60_" class="st2" d="M536.3,351.7c2.2-1.2,4.3-1.9,6.4-2.2c2.6-0.3,5.4,0,8.3,0.7c2.9,1.2,4.9,2.9,5.8,5.3
			c0.6,1.7,0.1,3.5-1.5,5.4c-1.4,1.5-3.7,3-6.8,4.4c-3.2,1.4-6.3,2.5-9.3,3.3l-2.9-4.8c-0.1,1.1-0.1,2.1,0.1,3
			c0.5,1.8,1.7,3,3.8,3.5c2.5,0.3,4.9,0,7.3-0.9c2.2-1.2,4-2.8,5.4-4.9l5.4,4.8c-1.6,2.7-3.9,4.8-6.7,6.4c-1,0.6-2.7,1.2-5.1,1.7
			c-3.1,0.3-6,0.2-8.7-0.2c-2.9-0.5-5.3-1.9-7.2-4.2c-1.5-2.1-2.3-4.5-2.4-7.3c-0.2-3,0.7-5.9,2.5-8.7
			C532.4,354.6,534.3,352.8,536.3,351.7z M548.1,356.8c-0.5-0.5-1.2-0.8-2.1-0.7c-2.3,0-4.4,0.7-6.2,2.2c-1.7,1.5-2.8,3-3.4,4.5
			c2.1-0.6,4.6-1.4,7.5-2.3c2.3-0.9,3.7-1.7,4.2-2.4C548.3,357.6,548.3,357.2,548.1,356.8z"/>
		<path id="XMLID_63_" class="st2" d="M603.9,336.7c5.1,0,8.8,1,11.1,3l-4,7.6c-4.3-2.9-8.8-3.3-13.5-1.2c-4.5,2.7-7,6.1-7.7,10.4
			c-0.8,5.9,1.1,9.8,5.5,11.8c3,1,6.3,0.7,9.9-0.9c2.4-1.7,3.8-4.5,4-8.5l-12.2,0.8l-0.6-7.7l22.6-1.3l0.6,7.7l-2.2,0.1l0.6,18.8
			l-8.3,0.4l-0.2-5c-2.9,3.2-7.3,4.5-13.4,4c-7.1-0.8-11.8-4-14-9.4c-1.9-5.5-2-10.6-0.3-15.5c1.9-5.6,5.8-9.9,11.7-13
			C596.9,337.2,600.4,336.5,603.9,336.7z"/>
		<path id="XMLID_65_" class="st2" d="M636.9,349.6c3-0.3,5.6-0.3,7.8,0.1c1.7,0.3,4.2,1.3,7.3,3.1l-3.5,6.6l2.4-0.5l3.3,17
			l-8.1,1.2l-0.7-4.6c-1.7,2.3-3.9,3.8-6.6,4.6c-3.8,0.7-6.9,0.5-9.5-0.6c-2.6-1.3-4.4-3.3-5.5-5.9c-0.8-3-0.8-6,0-9.1
			c1.1-3.3,2.5-5.7,4.3-7.3C630.3,352,633.2,350.5,636.9,349.6z M640.3,357.3c-2.3,0.2-4.3,1.1-5.9,2.5c-1.6,1.5-2.5,3.4-2.7,5.8
			c0.1,3.1,1.2,4.7,3.5,4.9c2.1,0.2,4-0.7,5.5-2.8c1.3-1.8,1.9-4.2,1.7-7.2l5-0.9C645.5,358.2,643.1,357.4,640.3,357.3z"/>
		<path id="XMLID_68_" class="st2" d="M659.8,377l1-40.3l9,0.5l-1,40.4L659.8,377z"/>
		<path id="XMLID_70_" class="st2" d="M675.4,377l1-40.3l9,0.5l-1,40.4L675.4,377z"/>
		<path id="XMLID_72_" class="st2" d="M699.2,351.7c2.2-1.2,4.3-1.9,6.4-2.2c2.6-0.3,5.4,0,8.3,0.7c2.9,1.2,4.9,2.9,5.8,5.3
			c0.6,1.7,0.1,3.5-1.5,5.4c-1.4,1.5-3.7,3-6.8,4.4c-3.2,1.4-6.3,2.5-9.3,3.3l-2.9-4.8c-0.1,1.1-0.1,2.1,0.1,3
			c0.5,1.8,1.7,3,3.8,3.5c2.5,0.3,4.9,0,7.3-0.9c2.2-1.2,4-2.8,5.4-4.9l5.4,4.8c-1.6,2.7-3.9,4.8-6.7,6.4c-1,0.6-2.7,1.2-5.1,1.7
			c-3.1,0.3-6,0.2-8.7-0.2c-2.9-0.5-5.3-1.9-7.2-4.2c-1.5-2.1-2.3-4.5-2.4-7.3c-0.2-3,0.7-5.9,2.5-8.7
			C695.3,354.6,697.2,352.8,699.2,351.7z M711,356.8c-0.5-0.5-1.2-0.8-2.1-0.7c-2.3,0-4.4,0.7-6.2,2.2c-1.7,1.5-2.8,3-3.4,4.5
			c2.1-0.6,4.6-1.4,7.5-2.3c2.3-0.9,3.7-1.7,4.2-2.4C711.3,357.6,711.3,357.2,711,356.8z"/>
		<path id="XMLID_75_" class="st2" d="M739.3,352.8c1.5-1.5,3.3-2.7,5.4-3.5l4,7.9c-1.9,0.7-3.4,1.3-4.5,2c-1.8,1.1-3.3,2.3-4.5,3.8
			c-1.7,2.3-2.9,4.6-3.4,7c-0.4,1.7-0.5,4.1-0.4,7.4l-8.4,0.3l-0.7-27.6l8.5-0.5l0.1,8.9C736.1,356.3,737.4,354.4,739.3,352.8z"/>
		<path id="XMLID_77_" class="st2" d="M775.7,349.3l9.6,2.1c-2.1,8-3.9,14-5.4,17.9c-2.5,6.9-4.7,12-6.6,15.3
			c-2.5,4.3-6.2,6.4-11.2,6.2c-3.1,0.1-6.6-1.1-10.5-3.4l4.1-7.5c2.1,1.3,3.8,2.1,4.8,2.4c1.2,0.1,2.2-0.1,3-0.6
			c1.2-0.8,2.2-2.3,3-4.3l-15-23.4l8-4.6l11.4,17.9C773.1,360.9,774.7,354.9,775.7,349.3z"/>
	</g>
</g>
</svg>
