<?xml version="1.0" encoding="utf-8"?>
<!-- Generator: Adobe Illustrator 19.0.0, SVG Export Plug-In . SVG Version: 6.00 Build 0)  -->
<svg version="1.1" id="Layer_1" xmlns="http://www.w3.org/2000/svg" xmlns:xlink="http://www.w3.org/1999/xlink" x="0px" y="0px"
	 viewBox="0 0 211.1 149.4" style="enable-background:new 0 0 211.1 149.4;" xml:space="preserve">
<style type="text/css">
	.st0{fill:#59B248;}
	.st1{fill:#F4F4F4;}
</style>
<path id="XMLID_31_" class="st0" d="M174.2,58.7C162.7,37.5,142.7,14.4,112,4.9C50-14.2,9.8,25.8,14.5,67.3
	c2.4,21.4,9.8,34.2,20.5,41.9l0,0c0,0-17.7,3.9-33.5,20.4c0,0-5.2,3.7,4.2,9.3c9.1,5.4,108.5,24.9,147.6-8.7c2.9,0.6,6,1,9.1,1.2
	c25.8,1.3,45.6-2.2,48.6-34.5C212.7,77.7,196.1,62.7,174.2,58.7z"/>
<g id="XMLID_27_">
	<path id="XMLID_29_" class="st1" d="M55.1,105.2c4.4-1.4,10.8-1.2,16.9-0.9c6.5,0.3,11.4,0.8,15.7,2.8c8.4-5,14.3-14.3,14.8-25.1
		c0.8-16.9-11.8-31.2-28.2-32C58,49.2,44.1,62.2,43.2,79.1C42.7,89.7,47.5,99.3,55.1,105.2z"/>
	<polygon id="XMLID_28_" class="st0" points="67.6,90 70.5,59.6 59.3,59.1 58.8,98.5 86.6,99.8 87.1,89.1 	"/>
</g>
</svg>
