<?xml version="1.0" encoding="utf-8"?>
<!-- Generator: Adobe Illustrator 19.0.0, SVG Export Plug-In . SVG Version: 6.00 Build 0)  -->
<svg version="1.1" id="Layer_1" xmlns="http://www.w3.org/2000/svg" xmlns:xlink="http://www.w3.org/1999/xlink" x="0px" y="0px"
	 viewBox="0 0 212.7 135.8" style="enable-background:new 0 0 212.7 135.8;" xml:space="preserve">
<style type="text/css">
	.st0{fill:#59B248;}
	.st1{fill:#F4F4F4;}
</style>
<g id="XMLID_55_">
	<path id="XMLID_31_" class="st0" d="M177.5,57.4C167,37.6,148.1,15.8,118,5.9C56.9-14.2,14.8,20.4,17.5,58.2
		c1.4,19.6,8.1,31.4,18.5,38.9l0,0c0,0-17.9,2.7-34.5,17.1c0,0-5.4,3.1,3.8,8.6c8.9,5.3,107.2,27.2,147.8-1.5
		c2.9,0.7,5.9,1.2,9.1,1.4c25.7,2.3,45.7,0,50.1-29.2C215,76.3,199.2,61.9,177.5,57.4z"/>
	<g id="XMLID_27_">
		<path id="XMLID_29_" class="st1" d="M56.3,94.3c4.4-1.1,10.9-0.6,16.9-0.1c6.4,0.6,11.4,1.2,15.6,3.2c8.7-4.2,15-12.3,16-22.1
			c1.6-15.3-10.3-28.8-26.6-30.3S47.3,55,45.7,70.2C44.7,79.8,49,88.7,56.3,94.3z"/>
		<polygon id="XMLID_28_" class="st0" points="69.6,81.1 73.8,53.7 62.7,52.7 60.3,88.4 88.1,90.9 89.1,81.2 		"/>
	</g>
</g>
</svg>
