<svg version="1.1"
	 id="icon-discord" xmlns:rdf="http://www.w3.org/1999/02/22-rdf-syntax-ns#" xmlns:cc="http://creativecommons.org/ns#" xmlns:dc="http://purl.org/dc/elements/1.1/" xmlns:svg="http://www.w3.org/2000/svg" xmlns="http://www.w3.org/2000/svg" xmlns:xlink="http://www.w3.org/1999/xlink" x="0px" y="0px" viewBox="194 40.2 1000 713.8"
	 style="enable-background:new 194 40.2 1000 713.8;" xml:space="preserve">
<path id="path8" d="M556,40.2c-13.3,0.1-122.9,3.2-238.6,89.1c0,0-123.4,221.9-123.4,495.3
	c0,0,72,123.4,261.4,129.4c0,0,31.7-37.7,57.4-70.3c-108.8-32.6-150-100.3-150-100.3s8.6,6,24,14.6c0.9,0,1.7,0.9,3.4,1.7
	c2.6,1.7,5.1,2.6,7.7,4.3c21.4,12,42.8,21.4,62.6,29.1c35.1,14.6,77.1,27.4,126,36.8c64.3,12,139.7,16.3,221.9,0.9
	c40.3-7.7,81.4-18.9,124.3-36.8c30-11.1,63.4-27.4,98.5-50.6c0,0-42.8,69.4-155.1,101.1c25.7,31.7,56.6,68.5,56.6,68.5
	c189.4-6,261.4-129.4,261.4-128.5c0-273.4-123.4-495.3-123.4-495.3C948.1,37.6,830.7,40.2,830.7,40.2l-12,13.7
	c145.7,43.7,213.4,108,213.4,108c-89.1-48-176.5-72-257.9-81.4c-61.7-6.9-120.8-5.1-173.1,1.7c-5.1,0-9.4,0.9-14.6,1.7
	c-30,3.4-102.8,13.7-194.5,54c-31.7,13.7-50.6,24-50.6,24s70.3-67.7,224.5-111.4l-8.6-10.3C557.3,40.2,556.9,40.2,556,40.2L556,40.2
	z M534.2,356.4c48.8,0,88.3,42,87.4,94.3c0,52.3-38.6,94.3-87.4,94.3c-48,0-87.4-42-87.4-94.3C446.8,398.4,485.3,356.4,534.2,356.4
	L534.2,356.4z M847,356.4c48,0,87.4,42,87.4,94.3c0,52.3-38.6,94.3-87.4,94.3c-48,0-87.4-42-87.4-94.3
	C759.6,398.4,798.1,356.4,847,356.4L847,356.4z"/>
</svg>
