<svg version="1.1" id="icon-forum" xmlns="http://www.w3.org/2000/svg" xmlns:xlink="http://www.w3.org/1999/xlink" x="0px" y="0px"
     viewBox="0 0 352.1 296.2" style="enable-background:new 0 0 352.1 296.2;" xml:space="preserve">
<g id="XMLID_1_">
    <g id="XMLID_40_">
        <path id="XMLID_46_" d="M0,156.4c0-36.2,0-72.3,0-108.5c0.4-2.1,0.7-4.1,1.1-6.2C5.4,18.5,26.7,0.3,50.2,0.1
            C89.5-0.1,128.7,0,167.9,0c20.9,0,41.8-0.1,62.7,0.1c13.3,0.1,24.9,5,34.5,14.2c10.8,10.3,16.2,23,16.3,38c0.1,32.5,0,65,0,97.5
            c0,2.5-0.1,5-0.3,7.5c-1.1,11.5-5.7,21.6-13.5,30c-10.6,11.4-23.9,16.8-39.4,16.8c-40.7,0-81.4,0-122.1,0c-1.6,0-2.6,0.5-3.7,1.6
            c-9.5,9.5-20,17.7-31.7,24.2c-14.2,7.8-29.1,13.2-45.5,13.6c-4.4,0.1-8.8,0-12.8-1.8c-3.1-1.4-3.2-3-0.7-5.1
            c3.2-2.7,6.5-5.3,9.6-8.1c7.2-6.8,13.2-14.5,16.9-23.8c0.3-0.7,0.5-1.5,0.8-2.3c-0.7-0.2-1.2-0.4-1.6-0.5
            C19.2,196,7.5,184.1,2,166.2C1,163,0.7,159.7,0,156.4z M140.8,87.7c-9.2,0-16.8,7.4-16.8,16.5c0,9,7.5,16.6,16.6,16.6
            c9.2,0,16.7-7.4,16.8-16.6C157.4,95.2,149.9,87.8,140.8,87.7z M181.7,104.2c0,9.1,7.4,16.6,16.4,16.6c9.2,0,16.8-7.4,16.8-16.5
            c0-9.1-7.3-16.5-16.5-16.6C189.1,87.7,181.7,95,181.7,104.2z M99.7,104.4c0.2-8.9-7.1-16.5-15.9-16.7c-9.5-0.2-17.1,6.9-17.2,16.2
            c-0.2,8.9,7.1,16.7,15.8,16.9C92,121,99.5,114,99.7,104.4z"/>
        <path id="XMLID_44_" d="M352.1,208.5c-0.7,3.4-1,7-2,10.3c-5.4,18-17.2,29.8-35,35.7c-0.4,0.1-0.8,0.2-1.2,0.4
            c-0.1,0-0.2,0.1-0.4,0.3c1.5,4.7,3.8,9,6.6,13c5.3,7.9,12.1,14.4,19.5,20.2c0.3,0.3,0.7,0.5,1,0.8c2.8,2.3,2.6,4.1-0.8,5.3
            c-2.7,0.9-5.6,1.5-8.4,1.7c-12.2,0.6-23.8-2.2-35.1-6.7c-17.6-6.9-32.8-17.7-46.1-31c-1.3-1.3-2.6-1.8-4.4-1.8
            c-40.6,0-81.2,0-121.8,0.1c-11.6,0-22.1-3.2-31.6-9.9c-0.4-0.3-0.8-0.6-1.1-0.9c-0.2-0.1-0.3-0.3-0.6-0.5c3.1-2.2,6.3-4.2,9.2-6.5
            c4.3-3.3,8.5-6.8,12.6-10.3c1-0.8,1.9-1.2,3.2-1.2c37.5,0,75,0,112.5,0c21.1,0,39.4-6.9,54.5-21.7c11.4-11.1,18.7-24.6,21.3-40.4
            c0.9-5.2,1.2-10.5,1.3-15.7c0.1-31.4,0.1-62.8,0.1-94.1c0-0.8,0-1.5,0-2.5c4.6,0.3,8.8,1.3,12.8,2.9c19.2,7.7,30.4,21.9,33.7,42.3
            c0.1,0.9,0.3,1.9,0.4,2.8C352.1,136.9,352.1,172.7,352.1,208.5z"/>
    </g>
</g>
</svg>