<?xml version="1.0" encoding="utf-8"?>
<!-- Generator: Adobe Illustrator 19.0.0, SVG Export Plug-In . SVG Version: 6.00 Build 0)  -->
<svg version="1.1" id="Layer_1" xmlns="http://www.w3.org/2000/svg" xmlns:xlink="http://www.w3.org/1999/xlink" x="0px" y="0px"
	 width="433px" height="160px" viewBox="-215.8 317.3 433 160" style="enable-background:new -215.8 317.3 433 160;"
	 xml:space="preserve">
<style type="text/css">
	.st0{opacity:0.35;enable-background:new    ;}
	.st1{fill:#231F20;}
	.st2{fill:#304D6B;}
	.st3{fill:#3D6691;}
	.st4{fill:#DE453D;}
	.st5{fill:#F8A01B;}
	.st6{fill:#60B946;}
	.st7{fill:#A264A7;}
	.st8{fill:#FFFFFF;}
	.st9{fill:#FECF07;}
	.st10{fill:#E7483F;}
	.st11{fill:#4696D1;}
	.st12{fill:#FEFEFE;}
	.st13{opacity:0.35;fill:#231F20;enable-background:new    ;}
	.st14{fill:#DAE8F7;}
	.st15{fill:#DDEAF8;}
	.st16{fill:#C1D8F2;}
	.st17{fill:#FDFDFD;}
	.st18{fill:#A9CBEE;}
	.st19{fill:#A2C9F1;}
	.st20{fill:#29435A;}
	.st21{fill:#86B5E7;}
	.st22{fill:#C2DAF3;}
</style>
<g>
	<g class="st0">
		<circle class="st1" cx="-135" cy="398.3" r="78.6"/>
		<g>
			<g>
				<polygon class="st1" points="-135,398.3 -135,398.3 -135,398.3 				"/>
				<path class="st1" d="M-135,398.3C-135,398.3-135,398.3-135,398.3C-135,398.3-135,398.3-135,398.3z"/>
				<path class="st1" d="M-135,398.3C-135,398.3-135,398.3-135,398.3c13.3-14,19.9-27.7,18.1-47.2c-0.7-7.6-2.3-14.9-4.7-22.2
					c-18.7-3.6-38.9,0.3-55.4,12.6c-3.3,2.5-6.4,5.2-9.1,8C-161.6,356.1-141.3,369.6-135,398.3z"/>
				<path class="st1" d="M-135,398.3C-135,398.3-135,398.3-135,398.3c-17.7-4.2-32.8-6-49.4,2.9c-7,3.7-13.4,8.3-19.4,13.6
					c2.1,9,6.1,17.7,11.9,25.6c7.7,10.4,17.8,18.1,28.9,22.9c-1.1-7.5-1.2-15.2,0.1-22.9C-159.8,422.8-146.9,410.6-135,398.3z"/>
				<path class="st1" d="M-89.4,393.8c-14.9,9.8-28.9,8.3-45.6,4.5c3.3,15.5,6,31.8,19.1,42.2c7.5,6,16.4,9.8,26,12.2
					c23.2-19.2,31.2-50.6,21.5-77.9C-74.6,382.1-81.5,388.7-89.4,393.8z"/>
				<polygon class="st1" points="-135,398.3 -135,398.3 -135,398.3 				"/>
				<path class="st1" d="M-184.4,401.2c16.6-8.9,31.7-7.1,49.4-2.9c0,0,0,0,0,0c-6.3-28.7-26.6-42.2-51.2-48.7
					c-16.7,17.5-23,42.2-17.6,65.2C-197.8,409.5-191.3,404.9-184.4,401.2z"/>
				<path class="st1" d="M-116.9,351.1c1.8,19.5-4.8,33.2-18.1,47.2c16.8,3.8,30.7,5.3,45.6-4.5c7.9-5.2,14.8-11.7,21-19.1
					c-2.3-6.5-5.5-12.7-9.8-18.5c-11-14.8-26.6-24.1-43.4-27.3C-119.3,336.2-117.6,343.6-116.9,351.1z"/>
				<path class="st1" d="M-135,398.3C-135,398.3-135,398.3-135,398.3c-11.9,12.3-24.8,24.4-27.8,42c-1.3,7.7-1.2,15.4-0.1,22.9
					c22.3,9.6,49,7.4,69.9-8.1c1-0.8,2.1-1.6,3.1-2.4c-9.5-2.4-18.5-6.2-26-12.2C-129,430.1-131.7,413.8-135,398.3z"/>
				<path class="st1" d="M-135,398.3C-135,398.3-135,398.3-135,398.3C-135,398.3-135,398.3-135,398.3z"/>
			</g>
			<path class="st1" d="M-95.7,384.9l-78.7,0c-3.2,0-5.8,2.6-5.8,5.8l0,15.3c0,3.2,2.6,5.8,5.8,5.8l78.7,0c3.2,0,5.8-2.6,5.8-5.8
				l0-15.3C-89.9,387.5-92.5,384.9-95.7,384.9z"/>
		</g>
	</g>
	<g>
		<circle class="st2" cx="-137" cy="396.3" r="78.6"/>
		<path class="st3" d="M-213.6,398.3c0-43.4,35.2-78.6,78.7-78.6c21.2,0,40.4,8.4,54.6,22.1c-14.3-14.8-34.3-24.1-56.6-24.1
			c-43.4,0-78.6,35.2-78.7,78.6c0,22.2,9.2,42.3,24,56.6C-205.2,438.7-213.6,419.5-213.6,398.3z"/>
		<g>
			<g>
				<polygon class="st4" points="-137,396.3 -137,396.3 -137,396.3 				"/>
				<path class="st4" d="M-137,396.3C-137,396.3-137,396.3-137,396.3C-137,396.3-137,396.3-137,396.3z"/>
				<path class="st5" d="M-137,396.3C-137,396.3-137,396.3-137,396.3c13.3-14,19.9-27.7,18.1-47.2c-0.7-7.6-2.3-14.9-4.7-22.2
					c-18.7-3.6-38.9,0.3-55.4,12.6c-3.3,2.5-6.4,5.2-9.1,8C-163.6,354.1-143.3,367.6-137,396.3z"/>
				<path class="st6" d="M-137,396.3C-137,396.3-137,396.3-137,396.3c-17.7-4.2-32.8-6-49.4,2.9c-7,3.7-13.4,8.3-19.4,13.6
					c2.1,9,6.1,17.7,11.9,25.6c7.7,10.4,17.8,18.1,28.9,22.9c-1.1-7.5-1.2-15.2,0.1-22.9C-161.8,420.8-148.9,408.6-137,396.3z"/>
				<path class="st7" d="M-91.4,391.8c-14.9,9.8-28.9,8.3-45.6,4.5c3.3,15.5,6,31.8,19.1,42.2c7.5,6,16.4,9.8,26,12.2
					c23.2-19.2,31.2-50.6,21.5-77.9C-76.6,380.1-83.5,386.7-91.4,391.8z"/>
				<polygon class="st8" points="-137,396.3 -137,396.3 -137,396.3 				"/>
				<path class="st9" d="M-186.4,399.2c16.6-8.9,31.7-7.1,49.4-2.9c0,0,0,0,0,0c-6.3-28.7-26.6-42.2-51.2-48.7
					c-16.7,17.5-23,42.2-17.6,65.2C-199.8,407.5-193.3,402.9-186.4,399.2z"/>
				<path class="st10" d="M-118.9,349.1c1.8,19.5-4.8,33.2-18.1,47.2c16.8,3.8,30.7,5.3,45.6-4.5c7.9-5.2,14.8-11.7,21-19.1
					c-2.3-6.5-5.5-12.7-9.8-18.5c-11-14.8-26.6-24.1-43.4-27.3C-121.3,334.2-119.6,341.6-118.9,349.1z"/>
				<path class="st11" d="M-137,396.3C-137,396.3-137,396.3-137,396.3c-11.9,12.3-24.8,24.4-27.8,42c-1.3,7.7-1.2,15.4-0.1,22.9
					c22.3,9.6,49,7.4,69.9-8.1c1-0.8,2.1-1.6,3.1-2.4c-9.5-2.4-18.5-6.2-26-12.2C-131,428.1-133.7,411.8-137,396.3z"/>
				<path class="st8" d="M-137,396.3C-137,396.3-137,396.3-137,396.3C-137,396.3-137,396.3-137,396.3z"/>
			</g>
			<g>
				<path class="st12" d="M-176.3,412.3c-2.2,0-4.3-0.9-5.8-2.4c-1.6-1.6-2.4-3.6-2.4-5.9l0-15.3c0-4.6,3.7-8.3,8.3-8.3l78.7,0
					c4.6,0,8.3,3.7,8.3,8.3l0,15.3c0,4.6-3.7,8.3-8.3,8.3C-97.7,412.3-176.3,412.3-176.3,412.3z"/>
				<path class="st2" d="M-176.3,382.9C-176.3,382.9-176.3,382.9-176.3,382.9l78.7,0c3.2,0,5.8,2.6,5.8,5.8l0,15.3
					c0,3.2-2.6,5.8-5.8,5.8c0,0,0,0,0,0l-78.7,0c-3.2,0-5.8-2.6-5.8-5.8l0-15.3C-182.1,385.5-179.5,382.9-176.3,382.9 M-176.3,377.9
					L-176.3,377.9L-176.3,377.9L-176.3,377.9c-5.9,0-10.8,4.8-10.8,10.8l0,15.3c0,2.9,1.1,5.6,3.2,7.6c2,2,4.7,3.2,7.6,3.2l78.7,0
					c5.9,0,10.8-4.8,10.8-10.8l0-15.3c0-5.9-4.8-10.8-10.8-10.8L-176.3,377.9L-176.3,377.9z"/>
			</g>
		</g>
	</g>
</g>
<g id="XMLID_7_">
	<path id="XMLID_384_" class="st13" d="M215,404.3v-2h-2v-2h-2v-2h-2v-2h-2v-2h-2v-2h-2h-44v-42v-2h-2v-2h-2H-35v-16v-2h-2v-2h-2
		h-32v2h-2v2h-2v2h-2v2h-2v2h-2v2h-2v-2h-2v-2h-2v-2h-2v-2h-2v-2h-2v-2h-2h-32v2h-2v2v70h2v2h36v-2h2v-16h14v82h2v2h34v-2h2v-2h2v-2
		h2v-2h2v-2h2v-2h2v2h2v2h2v2h2v2h2v2h2v2h34v-2h2v-18h186v-2h2v-2h2v-2h2v-2h2v-2h2v-2h2v-30v-2H215z"/>
	<g id="XMLID_1_">
		<rect id="XMLID_11132_" x="-15" y="450.3" class="st14" width="2" height="2"/>
		<rect id="XMLID_11116_" x="-47" y="450.3" class="st14" width="2" height="2"/>
		<rect id="XMLID_10610_" x="-21" y="444.3" class="st14" width="2" height="2"/>
		<rect id="XMLID_10600_" x="-41" y="444.3" class="st14" width="2" height="2"/>
		<rect id="XMLID_10088_" x="-27" y="438.3" class="st14" width="2" height="2"/>
		<rect id="XMLID_10084_" x="-35" y="438.3" class="st14" width="2" height="2"/>
		<rect id="XMLID_9681_" x="197" y="432.3" class="st14" width="2" height="2"/>
		<rect id="XMLID_9611_" x="57" y="432.3" class="st14" width="2" height="2"/>
		<rect id="XMLID_9593_" x="21" y="432.3" class="st14" width="2" height="2"/>
		<rect id="XMLID_9503_" x="187" y="430.3" class="st14" width="2" height="2"/>
		<rect id="XMLID_9498_" x="177" y="430.3" class="st14" width="2" height="2"/>
		<rect id="XMLID_9474_" x="129" y="430.3" class="st14" width="2" height="2"/>
		<rect id="XMLID_9433_" x="47" y="430.3" class="st14" width="2" height="2"/>
		<rect id="XMLID_9425_" x="31" y="430.3" class="st14" width="2" height="2"/>
		<rect id="XMLID_9337_" x="201" y="428.3" class="st14" width="2" height="2"/>
		<rect id="XMLID_9229_" x="-15" y="428.3" class="st14" width="2" height="2"/>
		<rect id="XMLID_9225_" x="-23" y="428.3" class="st14" width="2" height="2"/>
		<rect id="XMLID_9217_" x="-39" y="428.3" class="st14" width="2" height="2"/>
		<rect id="XMLID_9159_" x="191" y="426.3" class="st14" width="2" height="2"/>
		<rect id="XMLID_8770_" x="105" y="422.3" class="st14" width="2" height="2"/>
		<rect id="XMLID_8703_" x="-29" y="422.3" class="st14" width="2" height="2"/>
		<rect id="XMLID_8701_" x="-33" y="422.3" class="st14" width="2" height="2"/>
		<rect id="XMLID_8693_" x="-49" y="422.3" class="st15" width="2" height="2"/>
		<rect id="XMLID_8691_" x="-53" y="422.3" class="st15" width="2" height="2"/>
		<rect id="XMLID_8689_" x="-57" y="422.3" class="st15" width="2" height="2"/>
		<rect id="XMLID_8687_" x="-61" y="422.3" class="st15" width="2" height="2"/>
		<rect id="XMLID_8685_" x="-65" y="422.3" class="st15" width="2" height="2"/>
		<rect id="XMLID_8592_" x="95" y="420.3" class="st14" width="2" height="2"/>
		<rect id="XMLID_8585_" x="81" y="420.3" class="st14" width="2" height="2"/>
		<rect id="XMLID_8346_" x="-51" y="418.3" class="st15" width="2" height="2"/>
		<rect id="XMLID_8344_" x="-55" y="418.3" class="st15" width="2" height="2"/>
		<rect id="XMLID_8342_" x="-59" y="418.3" class="st15" width="2" height="2"/>
		<rect id="XMLID_8340_" x="-63" y="418.3" class="st15" width="2" height="2"/>
		<rect id="XMLID_8338_" x="-67" y="418.3" class="st15" width="2" height="2"/>
		<rect id="XMLID_8073_" x="95" y="414.3" class="st14" width="2" height="2"/>
		<rect id="XMLID_8066_" x="81" y="414.3" class="st14" width="2" height="2"/>
		<rect id="XMLID_8001_" x="-49" y="414.3" class="st16" width="2" height="2"/>
		<rect id="XMLID_7999_" x="-53" y="414.3" class="st16" width="2" height="2"/>
		<rect id="XMLID_7997_" x="-57" y="414.3" class="st16" width="2" height="2"/>
		<rect id="XMLID_7995_" x="-61" y="414.3" class="st16" width="2" height="2"/>
		<rect id="XMLID_7993_" x="-65" y="414.3" class="st16" width="2" height="2"/>
		<rect id="XMLID_7905_" x="105" y="412.3" class="st14" width="2" height="2"/>
		<rect id="XMLID_7654_" x="-51" y="410.3" class="st16" width="2" height="2"/>
		<rect id="XMLID_7652_" x="-55" y="410.3" class="st16" width="2" height="2"/>
		<rect id="XMLID_7650_" x="-59" y="410.3" class="st16" width="2" height="2"/>
		<rect id="XMLID_7648_" x="-63" y="410.3" class="st16" width="2" height="2"/>
		<rect id="XMLID_7646_" x="-67" y="410.3" class="st16" width="2" height="2"/>
		<rect id="XMLID_7602_" x="191" y="408.3" class="st14" width="2" height="2"/>
		<rect id="XMLID_7434_" x="201" y="406.3" class="st14" width="2" height="2"/>
		<rect id="XMLID_7309_" x="-49" y="406.3" class="st16" width="2" height="2"/>
		<rect id="XMLID_7307_" x="-53" y="406.3" class="st16" width="2" height="2"/>
		<rect id="XMLID_7305_" x="-57" y="406.3" class="st16" width="2" height="2"/>
		<rect id="XMLID_7303_" x="-61" y="406.3" class="st16" width="2" height="2"/>
		<rect id="XMLID_7301_" x="-65" y="406.3" class="st16" width="2" height="2"/>
		<rect id="XMLID_7254_" x="187" y="404.3" class="st14" width="2" height="2"/>
		<rect id="XMLID_7249_" x="177" y="404.3" class="st14" width="2" height="2"/>
		<rect id="XMLID_7208_" x="95" y="404.3" class="st14" width="2" height="2"/>
		<rect id="XMLID_7201_" x="81" y="404.3" class="st14" width="2" height="2"/>
		<rect id="XMLID_7184_" x="47" y="404.3" class="st14" width="2" height="2"/>
		<rect id="XMLID_7176_" x="31" y="404.3" class="st14" width="2" height="2"/>
		<rect id="XMLID_7086_" x="197" y="402.3" class="st14" width="2" height="2"/>
		<rect id="XMLID_7040_" x="105" y="402.3" class="st14" width="2" height="2"/>
		<rect id="XMLID_7016_" x="57" y="402.3" class="st14" width="2" height="2"/>
		<rect id="XMLID_6998_" x="21" y="402.3" class="st14" width="2" height="2"/>
		<rect id="XMLID_6962_" x="-51" y="402.3" class="st16" width="2" height="2"/>
		<rect id="XMLID_6960_" x="-55" y="402.3" class="st16" width="2" height="2"/>
		<rect id="XMLID_6958_" x="-59" y="402.3" class="st16" width="2" height="2"/>
		<rect id="XMLID_6956_" x="-63" y="402.3" class="st16" width="2" height="2"/>
		<rect id="XMLID_6954_" x="-67" y="402.3" class="st16" width="2" height="2"/>
		<g id="XMLID_2_">
			<polygon id="XMLID_5_" class="st17" points="153,432.3 129,432.3 129,400.3 117,400.3 117,436.3 157,436.3 157,432.3 			"/>
			<path id="XMLID_1573_" class="st17" d="M203,408.3h-2v-4h-4v-4h-32v36h32v-4h4v-4h4v-20H203L203,408.3z M177,430.3v-26h12v4h4v20
				h-4v4h-12V430.3L177,430.3z"/>
			<path id="XMLID_1576_" class="st17" d="M105,404.3v-4H69v36h12v-16h16v16h12v-12h-4v-12h4v-8H105L105,404.3z M81,414.3v-10h16v12
				H81V414.3L81,414.3z"/>
			<path id="XMLID_1579_" class="st17" d="M57,404.3v-4H23v4h-4v28h4v4h34v-4h4v-28H57L57,404.3z M31,430.3v-26h18v28H31V430.3
				L31,430.3z"/>
			<path id="XMLID_1582_" class="st17" d="M3,400.3h-16v30h-10v-6h-6v-6h-2v6h-6v6h-10v-6h-2v-2h2v-6h-2v-2h2v-6h-2v-2h2v-6h-2v-2h2
				v-4h-2v2h-2v-2h-2v2h-2v-2h-2v2h-2v-2h-2v2h-2v-2h-2v2h-2v6h2v2h-2v6h2v2h-2v6h2v2h-2v36h20v-6h6v-6h6v-6h10v6h6v6h6v6H7v-56H3
				L3,400.3z M-61,422.3h2v2h-2V422.3L-61,422.3z M-61,414.3h2v2h-2V414.3L-61,414.3z M-61,406.3h2v2h-2V406.3L-61,406.3z
				 M-59,402.3h2v2h-2V402.3L-59,402.3z M-53,404.3h-2v-2h2V404.3L-53,404.3z M-53,412.3h-2v-2h2V412.3L-53,412.3z M-53,420.3h-2v-2
				h2V420.3L-53,420.3z M-55,424.3h-2v-2h2V424.3L-55,424.3z M-55,416.3h-2v-2h2V416.3L-55,416.3z M-55,408.3h-2v-2h2V408.3
				L-55,408.3z M-59,410.3h2v2h-2V410.3L-59,410.3z M-59,418.3h2v2h-2V418.3L-59,418.3z M-51,424.3h-2v-2h2V424.3L-51,424.3z
				 M-49,420.3h-2v-2h2V420.3L-49,420.3z M-51,416.3h-2v-2h2V416.3L-51,416.3z M-49,412.3h-2v-2h2V412.3L-49,412.3z M-51,408.3h-2
				v-2h2V408.3L-51,408.3z M-49,404.3h-2v-2h2V404.3L-49,404.3z M-51,398.3v2h-2v-2H-51L-51,398.3z M-55,398.3v2h-2v-2H-55
				L-55,398.3z M-59,398.3v2h-2v-2H-59L-59,398.3z M-65,398.3h2v2h-2V398.3L-65,398.3z M-63,402.3h2v2h-2V402.3L-63,402.3z
				 M-65,406.3h2v2h-2V406.3L-65,406.3z M-63,410.3h2v2h-2V410.3L-63,410.3z M-65,414.3h2v2h-2V414.3L-65,414.3z M-63,418.3h2v2h-2
				V418.3L-63,418.3z M-65,422.3h2v2h-2V422.3L-65,422.3z"/>
		</g>
		<rect id="XMLID_5502_" x="143" y="386.3" class="st18" width="2" height="2"/>
		<rect id="XMLID_5478_" x="95" y="386.3" class="st18" width="2" height="2"/>
		<rect id="XMLID_5461_" x="61" y="386.3" class="st18" width="2" height="2"/>
		<rect id="XMLID_5324_" x="133" y="384.3" class="st18" width="2" height="2"/>
		<rect id="XMLID_5300_" x="85" y="384.3" class="st18" width="2" height="2"/>
		<rect id="XMLID_5293_" x="71" y="384.3" class="st18" width="2" height="2"/>
		<rect id="XMLID_5252_" x="-11" y="384.3" class="st18" width="2" height="2"/>
		<rect id="XMLID_5245_" x="-25" y="384.3" class="st18" width="2" height="2"/>
		<rect id="XMLID_4756_" x="35" y="378.3" class="st18" width="2" height="2"/>
		<rect id="XMLID_4459_" x="133" y="374.3" class="st18" width="2" height="2"/>
		<rect id="XMLID_4408_" x="31" y="374.3" class="st18" width="2" height="2"/>
		<rect id="XMLID_4291_" x="143" y="372.3" class="st18" width="2" height="2"/>
		<rect id="XMLID_4195_" x="-49" y="372.3" class="st19" width="2" height="2"/>
		<rect id="XMLID_4193_" x="-53" y="372.3" class="st19" width="2" height="2"/>
		<rect id="XMLID_4191_" x="-57" y="372.3" class="st19" width="2" height="2"/>
		<rect id="XMLID_4189_" x="-61" y="372.3" class="st19" width="2" height="2"/>
		<rect id="XMLID_4187_" x="-65" y="372.3" class="st19" width="2" height="2"/>
		<rect id="XMLID_4101_" x="109" y="370.3" class="st18" width="2" height="2"/>
		<rect id="XMLID_4060_" x="27" y="370.3" class="st18" width="2" height="2"/>
		<rect id="XMLID_4057_" x="21" y="370.3" class="st18" width="2" height="2"/>
		<rect id="XMLID_3933_" x="119" y="368.3" class="st18" width="2" height="2"/>
		<rect id="XMLID_3848_" x="-51" y="368.3" class="st19" width="2" height="2"/>
		<rect id="XMLID_3846_" x="-55" y="368.3" class="st19" width="2" height="2"/>
		<rect id="XMLID_3844_" x="-59" y="368.3" class="st19" width="2" height="2"/>
		<rect id="XMLID_3842_" x="-63" y="368.3" class="st19" width="2" height="2"/>
		<rect id="XMLID_3840_" x="-67" y="368.3" class="st19" width="2" height="2"/>
		<rect id="XMLID_3659_" x="-83" y="366.3" class="st18" width="2" height="2"/>
		<rect id="XMLID_3657_" x="-87" y="366.3" class="st18" width="2" height="2"/>
		<rect id="XMLID_3545_" x="35" y="364.3" class="st18" width="2" height="2"/>
		<rect id="XMLID_3542_" x="29" y="364.3" class="st18" width="2" height="2"/>
		<rect id="XMLID_3194_" x="25" y="360.3" class="st18" width="2" height="2"/>
		<rect id="XMLID_3147_" x="-69" y="360.3" class="st18" width="2" height="2"/>
		<rect id="XMLID_3143_" x="-77" y="360.3" class="st18" width="2" height="2"/>
		<rect id="XMLID_3135_" x="-93" y="360.3" class="st18" width="2" height="2"/>
		<rect id="XMLID_3131_" x="-101" y="360.3" class="st18" width="2" height="2"/>
		<rect id="XMLID_3068_" x="119" y="358.3" class="st18" width="2" height="2"/>
		<rect id="XMLID_3003_" x="-11" y="358.3" class="st18" width="2" height="2"/>
		<rect id="XMLID_2996_" x="-25" y="358.3" class="st18" width="2" height="2"/>
		<rect id="XMLID_2890_" x="109" y="356.3" class="st18" width="2" height="2"/>
		<rect id="XMLID_2846_" x="21" y="356.3" class="st18" width="2" height="2"/>
		<rect id="XMLID_2276_" x="-81" y="350.3" class="st18" width="2" height="2"/>
		<rect id="XMLID_2272_" x="-89" y="350.3" class="st18" width="2" height="2"/>
		<rect id="XMLID_1760_" x="-75" y="344.3" class="st18" width="2" height="2"/>
		<rect id="XMLID_1750_" x="-95" y="344.3" class="st18" width="2" height="2"/>
		<rect id="XMLID_1244_" x="-69" y="338.3" class="st18" width="2" height="2"/>
		<rect id="XMLID_1228_" x="-101" y="338.3" class="st18" width="2" height="2"/>
		<g id="XMLID_3_">
			<polygon id="XMLID_4_" class="st20" points="-19,452.3 -19,454.3 -15,454.3 -15,452.3 			"/>
			<polygon id="XMLID_1967_" class="st20" points="-25,446.3 -25,448.3 -21,448.3 -21,446.3 			"/>
			<polygon id="XMLID_1968_" class="st20" points="-31,440.3 -33,440.3 -33,446.3 -39,446.3 -39,452.3 -45,452.3 -45,458.3 
				-67,458.3 -67,460.3 -43,460.3 -43,454.3 -37,454.3 -37,448.3 -31,448.3 -31,442.3 -27,442.3 -27,440.3 			"/>
			<polygon id="XMLID_1969_" class="st20" points="19,436.3 21,436.3 21,434.3 19,434.3 			"/>
			<polygon id="XMLID_1970_" class="st20" points="159,434.3 159,438.3 117,438.3 117,440.3 161,440.3 161,432.3 159,432.3 			"/>
			<polygon id="XMLID_1971_" class="st20" points="181,428.3 181,408.3 187,408.3 187,406.3 179,406.3 179,430.3 181,430.3 			"/>
			<polygon id="XMLID_1972_" class="st20" points="-19,426.3 -19,424.3 -21,424.3 -21,428.3 -19,428.3 			"/>
			<polygon id="XMLID_1973_" class="st20" points="-43,426.3 -43,334.3 -45,334.3 -45,428.3 -43,428.3 			"/>
			<polygon id="XMLID_1974_" class="st20" points="111,426.3 111,438.3 97,438.3 97,440.3 113,440.3 113,424.3 111,424.3 			"/>
			<polygon id="XMLID_1975_" class="st20" points="91,422.3 83,422.3 83,438.3 69,438.3 69,440.3 85,440.3 85,424.3 95,424.3 
				95,422.3 			"/>
			<polygon id="XMLID_1976_" class="st20" points="-25,420.3 -25,418.3 -27,418.3 -27,422.3 -25,422.3 			"/>
			<polygon id="XMLID_1977_" class="st20" points="191,410.3 189,410.3 189,412.3 191,412.3 			"/>
			<polygon id="XMLID_1978_" class="st20" points="207,408.3 207,430.3 203,430.3 203,434.3 199,434.3 199,438.3 165,438.3 
				165,440.3 201,440.3 201,436.3 205,436.3 205,432.3 209,432.3 209,408.3 			"/>
			<polygon id="XMLID_1979_" class="st20" points="91,406.3 83,406.3 83,414.3 85,414.3 85,408.3 95,408.3 95,406.3 			"/>
			<polygon id="XMLID_1980_" class="st20" points="33,406.3 33,430.3 35,430.3 35,408.3 47,408.3 47,406.3 			"/>
			<polygon id="XMLID_1981_" class="st20" points="205,404.3 203,404.3 203,406.3 205,406.3 			"/>
			<polygon id="XMLID_1982_" class="st20" points="111,406.3 111,414.3 107,414.3 107,422.3 109,422.3 109,416.3 113,416.3 
				113,404.3 111,404.3 			"/>
			<polygon id="XMLID_1983_" class="st20" points="63,406.3 63,434.3 59,434.3 59,438.3 23,438.3 23,440.3 61,440.3 61,436.3 
				65,436.3 65,404.3 63,404.3 			"/>
			<polygon id="XMLID_1984_" class="st20" points="201,400.3 199,400.3 199,402.3 201,402.3 			"/>
			<polygon id="XMLID_1985_" class="st20" points="131,402.3 131,430.3 133,430.3 133,400.3 131,400.3 			"/>
			<polygon id="XMLID_1986_" class="st20" points="109,400.3 107,400.3 107,402.3 109,402.3 			"/>
			<polygon id="XMLID_1987_" class="st20" points="61,400.3 59,400.3 59,402.3 61,402.3 			"/>
			<polygon id="XMLID_1988_" class="st20" points="9,402.3 9,458.3 -13,458.3 -13,460.3 11,460.3 11,400.3 9,400.3 			"/>
			<polygon id="XMLID_1989_" class="st20" points="119,394.3 147,394.3 147,390.3 151,390.3 151,374.3 149,374.3 149,388.3 
				145,388.3 145,392.3 107,392.3 107,394.3 			"/>
			<polygon id="XMLID_1990_" class="st20" points="99,394.3 99,390.3 103,390.3 103,354.3 101,354.3 101,388.3 97,388.3 97,392.3 
				63,392.3 63,394.3 			"/>
			<polygon id="XMLID_1991_" class="st20" points="41,394.3 55,394.3 55,354.3 53,354.3 53,392.3 37,392.3 37,394.3 			"/>
			<polygon id="XMLID_1992_" class="st20" points="25,394.3 25,374.3 27,374.3 27,372.3 23,372.3 23,392.3 9,392.3 9,394.3 			"/>
			<polygon id="XMLID_1993_" class="st20" points="-11,394.3 5,394.3 5,386.3 3,386.3 3,392.3 -35,392.3 -35,394.3 			"/>
			<polygon id="XMLID_1994_" class="st20" points="61,388.3 59,388.3 59,390.3 61,390.3 			"/>
			<polygon id="XMLID_1995_" class="st20" points="75,382.3 75,354.3 73,354.3 73,384.3 75,384.3 			"/>
			<polygon id="XMLID_1996_" class="st20" points="-7,382.3 -7,362.3 5,362.3 5,354.3 3,354.3 3,360.3 -9,360.3 -9,384.3 -7,384.3 
							"/>
			<polygon id="XMLID_1997_" class="st20" points="33,382.3 35,382.3 35,380.3 33,380.3 			"/>
			<polygon id="XMLID_1998_" class="st20" points="115,378.3 133,378.3 133,376.3 111,376.3 111,378.3 			"/>
			<polygon id="XMLID_1999_" class="st20" points="29,378.3 31,378.3 31,376.3 29,376.3 			"/>
			<polygon id="XMLID_2000_" class="st20" points="109,372.3 107,372.3 107,374.3 109,374.3 			"/>
			<polygon id="XMLID_2001_" class="st20" points="145,372.3 147,372.3 147,370.3 145,370.3 			"/>
			<polygon id="XMLID_2002_" class="st20" points="-91,368.3 -91,370.3 -87,370.3 -87,368.3 			"/>
			<polygon id="XMLID_2003_" class="st20" points="123,366.3 123,362.3 151,362.3 151,354.3 149,354.3 149,360.3 121,360.3 
				121,368.3 123,368.3 			"/>
			<polygon id="XMLID_2004_" class="st20" points="33,362.3 31,362.3 31,364.3 33,364.3 			"/>
			<polygon id="XMLID_2005_" class="st20" points="-73,362.3 -75,362.3 -75,368.3 -81,368.3 -81,374.3 -85,374.3 -85,376.3 
				-79,376.3 -79,370.3 -73,370.3 -73,364.3 -69,364.3 -69,362.3 			"/>
			<polygon id="XMLID_2006_" class="st20" points="-97,362.3 -99,362.3 -99,392.3 -121,392.3 -121,394.3 -97,394.3 -97,364.3 
				-93,364.3 -93,362.3 			"/>
			<polygon id="XMLID_2007_" class="st20" points="-31,362.3 -25,362.3 -25,360.3 -35,360.3 -35,362.3 			"/>
			<polygon id="XMLID_2008_" class="st20" points="29,358.3 27,358.3 27,360.3 29,360.3 			"/>
			<polygon id="XMLID_2009_" class="st20" points="25,354.3 23,354.3 23,356.3 25,356.3 			"/>
			<polygon id="XMLID_2010_" class="st20" points="-85,348.3 -85,346.3 -87,346.3 -87,350.3 -85,350.3 			"/>
			<polygon id="XMLID_2011_" class="st20" points="-91,342.3 -91,340.3 -93,340.3 -93,344.3 -91,344.3 			"/>
			<polygon id="XMLID_2012_" class="st20" points="-97,336.3 -97,334.3 -99,334.3 -99,338.3 -97,338.3 			"/>
		</g>
		<g id="XMLID_6057_">
			<polygon id="XMLID_6058_" class="st21" points="-49,400.3 -47,400.3 -47,398.3 -49,398.3 			"/>
			<polygon id="XMLID_6069_" class="st21" points="-53,400.3 -51,400.3 -51,398.3 -53,398.3 			"/>
			<polygon id="XMLID_6070_" class="st21" points="-57,400.3 -55,400.3 -55,398.3 -57,398.3 			"/>
			<polygon id="XMLID_6071_" class="st21" points="-61,400.3 -59,400.3 -59,398.3 -61,398.3 			"/>
			<polygon id="XMLID_6072_" class="st21" points="-65,400.3 -63,400.3 -63,398.3 -65,398.3 			"/>
			<polygon id="XMLID_6073_" class="st21" points="-51,396.3 -49,396.3 -49,394.3 -51,394.3 			"/>
			<polygon id="XMLID_6074_" class="st21" points="-55,396.3 -53,396.3 -53,394.3 -55,394.3 			"/>
			<polygon id="XMLID_6075_" class="st21" points="-59,396.3 -57,396.3 -57,394.3 -59,394.3 			"/>
			<polygon id="XMLID_6076_" class="st21" points="-63,396.3 -61,396.3 -61,394.3 -63,394.3 			"/>
			<polygon id="XMLID_6077_" class="st21" points="-67,396.3 -65,396.3 -65,394.3 -67,394.3 			"/>
			<polygon id="XMLID_6078_" class="st21" points="145,354.3 111,354.3 111,358.3 107,358.3 107,370.3 111,370.3 111,374.3 
				135,374.3 135,386.3 107,386.3 107,390.3 143,390.3 143,386.3 147,386.3 147,374.3 143,374.3 143,370.3 119,370.3 119,358.3 
				147,358.3 147,354.3 			"/>
			<polygon id="XMLID_6079_" class="st21" points="95,354.3 87,354.3 87,386.3 71,386.3 71,354.3 59,354.3 59,386.3 63,386.3 
				63,390.3 95,390.3 95,386.3 99,386.3 99,354.3 			"/>
			<polygon id="XMLID_6080_" class="st21" points="47,354.3 37,354.3 37,366.3 29,366.3 29,362.3 25,362.3 25,358.3 21,358.3 
				21,354.3 9,354.3 9,390.3 21,390.3 21,370.3 29,370.3 29,374.3 33,374.3 33,378.3 37,378.3 37,390.3 51,390.3 51,354.3 			"/>
			<polygon id="XMLID_6081_" class="st21" points="-3,354.3 -35,354.3 -35,358.3 -23,358.3 -23,386.3 -35,386.3 -35,390.3 1,390.3 
				1,386.3 -11,386.3 -11,358.3 1,358.3 1,354.3 			"/>
			<path id="XMLID_6084_" class="st21" d="M-51,334.3h-16v6h-6v6h-6v6h-10v-6h-6v-6h-6v-6h-20v56h20v-30h10v6h6v6h2v-6h6v-6h10v8h2
				v2h-2v6h2v2h-2v6h2v2h-2v6h2v2h2v-2h2v2h2v-2h2v2h2v-2h2v2h2v-2h2v2h2v-4h-2v-2h2v-6h-2v-2h2v-6h-2v-2h2v-38H-51L-51,334.3z
				 M-53,370.3h-2v-2h2V370.3L-53,370.3z M-53,378.3h-2v-2h2V378.3L-53,378.3z M-53,386.3h-2v-2h2V386.3L-53,386.3z M-61,380.3h2v2
				h-2V380.3L-61,380.3z M-61,372.3h2v2h-2V372.3L-61,372.3z M-59,368.3h2v2h-2V368.3L-59,368.3z M-59,376.3h2v2h-2V376.3L-59,376.3
				z M-59,384.3h2v2h-2V384.3L-59,384.3z M-55,382.3h-2v-2h2V382.3L-55,382.3z M-55,374.3h-2v-2h2V374.3L-55,374.3z M-63,368.3h2v2
				h-2V368.3L-63,368.3z M-65,372.3h2v2h-2V372.3L-65,372.3z M-63,376.3h2v2h-2V376.3L-63,376.3z M-65,380.3h2v2h-2V380.3L-65,380.3
				z M-63,384.3h2v2h-2V384.3L-63,384.3z M-65,390.3v-2h2v2H-65L-65,390.3z M-61,390.3v-2h2v2H-61L-61,390.3z M-57,390.3v-2h2v2H-57
				L-57,390.3z M-51,390.3h-2v-2h2V390.3L-51,390.3z M-49,386.3h-2v-2h2V386.3L-49,386.3z M-51,382.3h-2v-2h2V382.3L-51,382.3z
				 M-49,378.3h-2v-2h2V378.3L-49,378.3z M-51,374.3h-2v-2h2V374.3L-51,374.3z M-49,370.3h-2v-2h2V370.3L-49,370.3z"/>
		</g>
		<g id="XMLID_872_">
			<polygon id="XMLID_873_" class="st22" points="-47,454.3 -47,456.3 -67,456.3 -67,386.3 -65,386.3 -65,384.3 -67,384.3 
				-67,378.3 -65,378.3 -65,376.3 -67,376.3 -67,362.3 -69,362.3 -69,458.3 -45,458.3 -45,452.3 -47,452.3 			"/>
			<polygon id="XMLID_4061_" class="st22" points="-17,450.3 -19,450.3 -19,446.3 -21,446.3 -21,452.3 -15,452.3 -15,450.3 			"/>
			<polygon id="XMLID_4062_" class="st22" points="-41,448.3 -41,450.3 -45,450.3 -45,452.3 -39,452.3 -39,446.3 -41,446.3 			"/>
			<polygon id="XMLID_4063_" class="st22" points="-23,444.3 -25,444.3 -25,440.3 -27,440.3 -27,446.3 -21,446.3 -21,444.3 			"/>
			<polygon id="XMLID_4064_" class="st22" points="-35,442.3 -35,444.3 -39,444.3 -39,446.3 -33,446.3 -33,440.3 -35,440.3 			"/>
			<polygon id="XMLID_4065_" class="st22" points="-29,438.3 -33,438.3 -33,440.3 -27,440.3 -27,438.3 			"/>
			<polygon id="XMLID_4066_" class="st22" points="197,436.3 165,436.3 165,400.3 197,400.3 197,402.3 199,402.3 199,398.3 
				163,398.3 163,438.3 199,438.3 199,434.3 197,434.3 			"/>
			<polygon id="XMLID_4067_" class="st22" points="57,436.3 23,436.3 23,434.3 21,434.3 21,438.3 59,438.3 59,434.3 57,434.3 			"/>
			<polygon id="XMLID_4068_" class="st22" points="19,432.3 19,404.3 21,404.3 21,402.3 17,402.3 17,434.3 21,434.3 21,432.3 			"/>
			<polygon id="XMLID_4069_" class="st22" points="201,432.3 199,432.3 199,434.3 203,434.3 203,430.3 201,430.3 			"/>
			<polygon id="XMLID_4070_" class="st22" points="183,430.3 179,430.3 179,432.3 187,432.3 187,430.3 			"/>
			<polygon id="XMLID_4071_" class="st22" points="155,430.3 131,430.3 131,432.3 157,432.3 157,436.3 117,436.3 117,400.3 
				129,400.3 129,430.3 131,430.3 131,398.3 115,398.3 115,438.3 159,438.3 159,430.3 			"/>
			<polygon id="XMLID_4072_" class="st22" points="43,430.3 33,430.3 33,432.3 47,432.3 47,430.3 			"/>
			<polygon id="XMLID_4075_" class="st22" points="-19,430.3 -15,430.3 -15,428.3 -21,428.3 -21,430.3 			"/>
			<polygon id="XMLID_4076_" class="st22" points="187,426.3 187,430.3 189,430.3 189,428.3 191,428.3 191,426.3 			"/>
			<polygon id="XMLID_4077_" class="st22" points="179,426.3 179,406.3 177,406.3 177,430.3 179,430.3 			"/>
			<polygon id="XMLID_4078_" class="st22" points="33,426.3 33,406.3 31,406.3 31,430.3 33,430.3 			"/>
			<polygon id="XMLID_4079_" class="st22" points="-37,426.3 -37,424.3 -33,424.3 -33,422.3 -39,422.3 -39,428.3 -37,428.3 			"/>
			<polygon id="XMLID_4080_" class="st22" points="109,424.3 109,436.3 97,436.3 97,422.3 95,422.3 95,438.3 111,438.3 111,422.3 
				107,422.3 107,424.3 			"/>
			<polygon id="XMLID_4081_" class="st22" points="81,424.3 81,436.3 69,436.3 69,400.3 105,400.3 105,402.3 107,402.3 107,398.3 
				67,398.3 67,438.3 83,438.3 83,422.3 81,422.3 			"/>
			<polygon id="XMLID_4082_" class="st22" points="-25,424.3 -23,424.3 -23,428.3 -21,428.3 -21,422.3 -27,422.3 -27,424.3 			"/>
			<polygon id="XMLID_4089_" class="st22" points="93,420.3 83,420.3 83,422.3 95,422.3 95,420.3 			"/>
			<polygon id="XMLID_4090_" class="st22" points="-31,420.3 -31,418.3 -29,418.3 -29,422.3 -27,422.3 -27,416.3 -33,416.3 
				-33,422.3 -31,422.3 			"/>
			<polygon id="XMLID_4091_" class="st22" points="105,416.3 105,422.3 107,422.3 107,414.3 105,414.3 			"/>
			<polygon id="XMLID_4092_" class="st22" points="91,414.3 83,414.3 83,416.3 95,416.3 95,414.3 			"/>
			<polygon id="XMLID_4093_" class="st22" points="191,412.3 191,426.3 193,426.3 193,410.3 191,410.3 			"/>
			<polygon id="XMLID_4094_" class="st22" points="83,410.3 83,406.3 81,406.3 81,414.3 83,414.3 			"/>
			<polygon id="XMLID_4095_" class="st22" points="187,410.3 191,410.3 191,408.3 189,408.3 189,406.3 187,406.3 			"/>
			<polygon id="XMLID_4096_" class="st22" points="205,406.3 203,406.3 203,408.3 205,408.3 205,428.3 203,428.3 203,430.3 
				207,430.3 207,406.3 			"/>
			<polygon id="XMLID_4099_" class="st22" points="95,408.3 95,414.3 97,414.3 97,406.3 95,406.3 			"/>
			<polygon id="XMLID_4100_" class="st22" points="47,408.3 47,430.3 49,430.3 49,406.3 47,406.3 			"/>
			<polygon id="XMLID_4102_" class="st22" points="183,406.3 187,406.3 187,404.3 179,404.3 179,406.3 			"/>
			<polygon id="XMLID_4103_" class="st22" points="87,406.3 95,406.3 95,404.3 83,404.3 83,406.3 			"/>
			<polygon id="XMLID_4104_" class="st22" points="37,406.3 47,406.3 47,404.3 33,404.3 33,406.3 			"/>
			<polygon id="XMLID_4105_" class="st22" points="201,404.3 201,406.3 203,406.3 203,402.3 199,402.3 199,404.3 			"/>
			<polygon id="XMLID_4106_" class="st22" points="107,402.3 107,404.3 109,404.3 109,412.3 107,412.3 107,414.3 111,414.3 
				111,402.3 			"/>
			<polygon id="XMLID_4107_" class="st22" points="59,402.3 59,404.3 61,404.3 61,432.3 59,432.3 59,434.3 63,434.3 63,402.3 			"/>
			<polygon id="XMLID_4108_" class="st22" points="23,400.3 57,400.3 57,402.3 59,402.3 59,398.3 21,398.3 21,402.3 23,402.3 			"/>
			<polygon id="XMLID_4109_" class="st22" points="5,398.3 -15,398.3 -15,428.3 -13,428.3 -13,400.3 7,400.3 7,456.3 -13,456.3 
				-13,452.3 -15,452.3 -15,458.3 9,458.3 9,398.3 			"/>
			<polygon id="XMLID_4110_" class="st22" points="117,392.3 145,392.3 145,388.3 143,388.3 143,390.3 107,390.3 107,386.3 
				133,386.3 133,384.3 105,384.3 105,392.3 			"/>
			<polygon id="XMLID_4111_" class="st22" points="69,392.3 97,392.3 97,388.3 95,388.3 95,390.3 63,390.3 63,388.3 61,388.3 
				61,392.3 			"/>
			<polygon id="XMLID_4112_" class="st22" points="19,392.3 23,392.3 23,372.3 21,372.3 21,390.3 9,390.3 9,354.3 21,354.3 
				21,356.3 23,356.3 23,352.3 7,352.3 7,392.3 			"/>
			<polygon id="XMLID_4113_" class="st22" points="-33,392.3 3,392.3 3,384.3 -9,384.3 -9,386.3 1,386.3 1,390.3 -35,390.3 
				-35,386.3 -25,386.3 -25,384.3 -37,384.3 -37,392.3 			"/>
			<polygon id="XMLID_4114_" class="st22" points="-53,390.3 -51,390.3 -51,388.3 -53,388.3 			"/>
			<polygon id="XMLID_4115_" class="st22" points="-57,390.3 -55,390.3 -55,388.3 -57,388.3 			"/>
			<polygon id="XMLID_4116_" class="st22" points="-61,390.3 -59,390.3 -59,388.3 -61,388.3 			"/>
			<polygon id="XMLID_4117_" class="st22" points="-65,390.3 -63,390.3 -63,388.3 -65,388.3 			"/>
			<polygon id="XMLID_4118_" class="st22" points="59,386.3 59,354.3 71,354.3 71,384.3 73,384.3 73,352.3 57,352.3 57,388.3 
				61,388.3 61,386.3 			"/>
			<polygon id="XMLID_4158_" class="st22" points="75,386.3 85,386.3 85,384.3 73,384.3 73,386.3 			"/>
			<polygon id="XMLID_4159_" class="st22" points="-49,384.3 -51,384.3 -51,386.3 -49,386.3 			"/>
			<polygon id="XMLID_4160_" class="st22" points="-53,384.3 -55,384.3 -55,386.3 -53,386.3 			"/>
			<polygon id="XMLID_4161_" class="st22" points="-57,384.3 -59,384.3 -59,386.3 -57,386.3 			"/>
			<polygon id="XMLID_4162_" class="st22" points="-61,384.3 -63,384.3 -63,386.3 -61,386.3 			"/>
			<polygon id="XMLID_4163_" class="st22" points="135,382.3 135,376.3 133,376.3 133,384.3 135,384.3 			"/>
			<polygon id="XMLID_4164_" class="st22" points="87,382.3 87,354.3 99,354.3 99,386.3 97,386.3 97,388.3 101,388.3 101,352.3 
				85,352.3 85,384.3 87,384.3 			"/>
			<polygon id="XMLID_4165_" class="st22" points="-23,382.3 -23,360.3 -25,360.3 -25,384.3 -23,384.3 			"/>
			<polygon id="XMLID_4166_" class="st22" points="-53,382.3 -51,382.3 -51,380.3 -53,380.3 			"/>
			<polygon id="XMLID_4167_" class="st22" points="-57,382.3 -55,382.3 -55,380.3 -57,380.3 			"/>
			<polygon id="XMLID_4168_" class="st22" points="-61,382.3 -59,382.3 -59,380.3 -61,380.3 			"/>
			<polygon id="XMLID_4169_" class="st22" points="-63,380.3 -65,380.3 -65,382.3 -63,382.3 			"/>
			<polygon id="XMLID_4176_" class="st22" points="33,378.3 33,376.3 31,376.3 31,380.3 35,380.3 35,378.3 			"/>
			<polygon id="XMLID_4177_" class="st22" points="-49,376.3 -51,376.3 -51,378.3 -49,378.3 			"/>
			<polygon id="XMLID_4178_" class="st22" points="-53,376.3 -55,376.3 -55,378.3 -53,378.3 			"/>
			<polygon id="XMLID_4185_" class="st22" points="-57,376.3 -59,376.3 -59,378.3 -57,378.3 			"/>
			<polygon id="XMLID_4186_" class="st22" points="-61,376.3 -63,376.3 -63,378.3 -61,378.3 			"/>
			<polygon id="XMLID_4188_" class="st22" points="131,374.3 111,374.3 111,372.3 109,372.3 109,376.3 133,376.3 133,374.3 			"/>
			<polygon id="XMLID_4190_" class="st22" points="29,374.3 29,372.3 27,372.3 27,376.3 31,376.3 31,374.3 			"/>
			<polygon id="XMLID_4192_" class="st22" points="147,374.3 147,386.3 145,386.3 145,388.3 149,388.3 149,372.3 145,372.3 
				145,374.3 			"/>
			<polygon id="XMLID_4194_" class="st22" points="107,370.3 107,358.3 109,358.3 109,356.3 105,356.3 105,372.3 109,372.3 
				109,370.3 			"/>
			<polygon id="XMLID_4196_" class="st22" points="25,370.3 23,370.3 23,372.3 27,372.3 27,370.3 			"/>
			<polygon id="XMLID_4207_" class="st22" points="123,370.3 143,370.3 143,372.3 145,372.3 145,368.3 121,368.3 121,370.3 			"/>
			<polygon id="XMLID_4208_" class="st22" points="-83,370.3 -83,372.3 -85,372.3 -85,368.3 -87,368.3 -87,374.3 -81,374.3 
				-81,368.3 -83,368.3 			"/>
			<polygon id="XMLID_4209_" class="st22" points="-89,366.3 -91,366.3 -91,362.3 -93,362.3 -93,368.3 -87,368.3 -87,366.3 			"/>
			<polygon id="XMLID_4210_" class="st22" points="33,366.3 35,366.3 35,364.3 31,364.3 31,366.3 			"/>
			<polygon id="XMLID_4211_" class="st22" points="37,362.3 37,354.3 51,354.3 51,390.3 37,390.3 37,380.3 35,380.3 35,392.3 
				53,392.3 53,352.3 35,352.3 35,364.3 37,364.3 			"/>
			<polygon id="XMLID_4212_" class="st22" points="-77,364.3 -77,366.3 -81,366.3 -81,368.3 -75,368.3 -75,362.3 -77,362.3 			"/>
			<polygon id="XMLID_4213_" class="st22" points="-101,364.3 -101,390.3 -121,390.3 -121,334.3 -101,334.3 -101,338.3 -99,338.3 
				-99,332.3 -123,332.3 -123,392.3 -99,392.3 -99,362.3 -101,362.3 			"/>
			<polygon id="XMLID_4214_" class="st22" points="119,362.3 119,368.3 121,368.3 121,360.3 119,360.3 			"/>
			<polygon id="XMLID_4223_" class="st22" points="29,362.3 29,364.3 31,364.3 31,360.3 27,360.3 27,362.3 			"/>
			<polygon id="XMLID_4224_" class="st22" points="-11,362.3 -11,384.3 -9,384.3 -9,360.3 -11,360.3 			"/>
			<polygon id="XMLID_4225_" class="st22" points="-71,360.3 -75,360.3 -75,362.3 -69,362.3 -69,360.3 			"/>
			<polygon id="XMLID_4226_" class="st22" points="-95,360.3 -99,360.3 -99,362.3 -93,362.3 -93,360.3 			"/>
			<polygon id="XMLID_4227_" class="st22" points="-27,358.3 -35,358.3 -35,354.3 1,354.3 1,358.3 -9,358.3 -9,360.3 3,360.3 
				3,352.3 -37,352.3 -37,360.3 -25,360.3 -25,358.3 			"/>
			<polygon id="XMLID_4228_" class="st22" points="25,358.3 25,360.3 27,360.3 27,356.3 23,356.3 23,358.3 			"/>
			<polygon id="XMLID_4229_" class="st22" points="111,354.3 147,354.3 147,358.3 121,358.3 121,360.3 149,360.3 149,352.3 
				109,352.3 109,356.3 111,356.3 			"/>
			<polygon id="XMLID_4230_" class="st22" points="-85,352.3 -81,352.3 -81,350.3 -87,350.3 -87,352.3 			"/>
			<polygon id="XMLID_4233_" class="st22" points="-79,348.3 -79,346.3 -75,346.3 -75,344.3 -81,344.3 -81,350.3 -79,350.3 			"/>
			<polygon id="XMLID_4234_" class="st22" points="-91,346.3 -89,346.3 -89,350.3 -87,350.3 -87,344.3 -93,344.3 -93,346.3 			"/>
			<polygon id="XMLID_4235_" class="st22" points="-73,342.3 -73,340.3 -69,340.3 -69,338.3 -75,338.3 -75,344.3 -73,344.3 			"/>
			<polygon id="XMLID_4236_" class="st22" points="-97,340.3 -95,340.3 -95,344.3 -93,344.3 -93,338.3 -99,338.3 -99,340.3 			"/>
			<polygon id="XMLID_4237_" class="st22" points="-67,336.3 -67,334.3 -47,334.3 -47,380.3 -49,380.3 -49,382.3 -47,382.3 
				-47,388.3 -49,388.3 -49,390.3 -47,390.3 -47,430.3 -39,430.3 -39,428.3 -45,428.3 -45,332.3 -69,332.3 -69,338.3 -67,338.3 			
				"/>
		</g>
		<g id="XMLID_698_">
			<polygon id="XMLID_699_" class="st2" points="39,430.3 47,430.3 47,408.3 35,408.3 35,430.3 			"/>
			<polygon id="XMLID_5503_" class="st2" points="189,410.3 187,410.3 187,408.3 181,408.3 181,430.3 187,430.3 187,426.3 
				191,426.3 191,412.3 189,412.3 			"/>
			<polygon id="XMLID_5504_" class="st2" points="91,408.3 85,408.3 85,414.3 95,414.3 95,408.3 			"/>
			<path id="XMLID_5508_" class="st2" d="M213,404.3v-2h-2v-2h-2v-2h-2v-2h-2v-2h-2v-2h-46v-44h-2v-2H-37v-18h-2v-2h-34v2h-2v2h-2v2
				h-2v2h-2v2h-4v-2h-2v-2h-2v-2h-2v-2h-4v-2h-34v74h36v-2h2v-16h14v82h2v2h34v-2h2v-2h2v-2h2v-2h2v-2h2v-2h2v2h2v2h2v2h2v2h2v2h2v2
				h34v-2h2v-18h186v-2h2v-2h2v-2h2v-2h2v-2h2v-2h2v-30H213L213,404.3z M207,432.3h-2v4h-4v4h-36v-2h-2v-40h36v2h2v2h2v2h2v2h2v2h2
				v24H207L207,432.3z M-39,454.3h-4v6h-24v-2h-2v-94h-4v6h-6v6h-6v-2h-2v-4h-4v-2h-2v-4h-4v30h-24v-2h-2v-60h24v2h2v4h4v2h2v4h4v2
				h2v4h4v-6h6v-6h6v-6h24v2h2v94h4v-6h6v-6h6v2h2v4h4v2h2v4h4v-30H9v2h2v60h-24v-2h-2v-4h-4v-2h-2v-4h-4v-2h-2v-4h-4v6h-6v6H-39
				L-39,454.3z M161,434.3v6h-44v-2h-2v-40h16v2h2v30h26v2h2V434.3L161,434.3z M95,438.3v-14H85v16H69v-2h-2v-40h40v2h2v2h2v2h2v12
				h-4v6h2v2h2v16H97v-2H95L95,438.3z M25,354.3v2h2v2h2v2h2v2h2v2h2v-12h18v2h2v40H37v-2h-2v-10h-2v-2h-2v-2h-2v-2h-2v-2h-2v20H9
				v-2H7v-40h16v2H25L25,354.3z M75,354.3v30h10v-32h16v2h2v36h-4v4H63v-2h-2v-2h-2v-2h-2v-36h16v2H75L75,354.3z M151,354.3v8h-28v6
				h22v2h2v2h2v2h2v16h-4v4h-40v-2h-2v-8h28v-6h-22v-2h-2v-2h-2v-2h-2v-16h4v-4h40v2H151L151,354.3z M5,354.3v8H-7v22H3v2h2v8h-40
				v-2h-2v-8h12v-22h-10v-2h-2v-8H3v2H5L5,354.3z M21,438.3v-2h-2v-2h-2v-32h4v-4h38v2h2v2h2v2h2v32h-4v4H23v-2H21L21,438.3z"/>
		</g>
		<g id="XMLID_176_">
			<polygon id="XMLID_177_" class="st3" points="213,402.3 213,404.3 215,404.3 215,402.3 			"/>
			<polygon id="XMLID_878_" class="st3" points="211,400.3 211,402.3 213,402.3 213,400.3 			"/>
			<polygon id="XMLID_879_" class="st3" points="209,398.3 209,400.3 211,400.3 211,398.3 			"/>
			<polygon id="XMLID_880_" class="st3" points="207,396.3 207,398.3 209,398.3 209,396.3 			"/>
			<polygon id="XMLID_881_" class="st3" points="205,394.3 205,396.3 207,396.3 207,394.3 			"/>
			<polygon id="XMLID_882_" class="st3" points="203,392.3 203,394.3 205,394.3 205,392.3 			"/>
			<polygon id="XMLID_884_" class="st3" points="201,390.3 157,390.3 157,392.3 203,392.3 203,390.3 			"/>
			<polygon id="XMLID_885_" class="st3" points="157,348.3 157,346.3 155,346.3 155,348.3 			"/>
			<polygon id="XMLID_886_" class="st3" points="153,344.3 -37,344.3 -37,346.3 155,346.3 155,344.3 			"/>
			<polygon id="XMLID_887_" class="st3" points="-83,336.3 -81,336.3 -81,334.3 -83,334.3 			"/>
			<polygon id="XMLID_888_" class="st3" points="-81,334.3 -79,334.3 -79,332.3 -81,332.3 			"/>
			<polygon id="XMLID_889_" class="st3" points="-79,332.3 -77,332.3 -77,330.3 -79,330.3 			"/>
			<polygon id="XMLID_891_" class="st3" points="-77,330.3 -75,330.3 -75,328.3 -77,328.3 			"/>
			<polygon id="XMLID_892_" class="st3" points="-37,328.3 -37,326.3 -39,326.3 -39,328.3 			"/>
			<polygon id="XMLID_893_" class="st3" points="-75,328.3 -73,328.3 -73,326.3 -75,326.3 			"/>
			<polygon id="XMLID_894_" class="st3" points="-95,328.3 -93,328.3 -93,326.3 -95,326.3 			"/>
			<polygon id="XMLID_895_" class="st3" points="-131,328.3 -131,398.3 -129,398.3 -129,326.3 -131,326.3 			"/>
			<polygon id="XMLID_896_" class="st3" points="-41,324.3 -73,324.3 -73,326.3 -39,326.3 -39,324.3 			"/>
			<polygon id="XMLID_897_" class="st3" points="-97,324.3 -129,324.3 -129,326.3 -95,326.3 -95,324.3 			"/>
		</g>
	</g>
	<rect id="XMLID_6_" x="-67" y="392.3" class="st17" width="2" height="2"/>
	<rect id="XMLID_8_" x="-63" y="392.3" class="st17" width="2" height="2"/>
	<rect id="XMLID_9_" x="-59" y="392.3" class="st17" width="2" height="2"/>
	<rect id="XMLID_10_" x="-55" y="392.3" class="st17" width="2" height="2"/>
	<rect id="XMLID_11_" x="-51" y="392.3" class="st17" width="2" height="2"/>
</g>
</svg>
