<?xml version="1.0" standalone="no"?>
<!DOCTYPE svg PUBLIC "-//W3C//DTD SVG 20010904//EN"
 "http://www.w3.org/TR/2001/REC-SVG-20010904/DTD/svg10.dtd">
<svg version="1.0" xmlns="http://www.w3.org/2000/svg"
 width="852.000000pt" height="852.000000pt" viewBox="0 0 852.000000 852.000000"
 preserveAspectRatio="xMidYMid meet">
<metadata>
Created by potrace 1.11, written by Peter Selinger 2001-2013
</metadata>
<g transform="translate(0.000000,852.000000) scale(0.100000,-0.100000)"
fill="#000000" stroke="none">
<path d="M3140 6974 c-347 -29 -561 -69 -810 -149 -768 -249 -1347 -804 -1550
-1485 -61 -206 -75 -310 -74 -560 0 -295 31 -518 110 -776 107 -355 279 -625
537 -840 85 -71 86 -74 60 -80 -418 -92 -828 -282 -1189 -550 -61 -46 -137
-107 -168 -136 -50 -48 -56 -58 -56 -94 0 -82 106 -190 255 -260 113 -52 324
-114 625 -183 679 -155 1385 -255 2140 -303 286 -18 949 -15 1195 5 812 66
1392 226 1830 502 l89 56 101 -20 c270 -54 923 -75 1165 -38 337 53 557 153
739 338 161 163 278 409 343 714 33 159 33 404 0 520 -52 179 -146 337 -287
484 -258 268 -561 428 -1042 551 -36 9 -47 18 -69 58 -387 679 -829 1167
-1399 1547 -550 366 -1214 601 -1925 680 -138 15 -525 27 -620 19z m91 -1810
c486 -82 869 -442 955 -900 22 -121 15 -346 -15 -455 -48 -175 -137 -337 -261
-471 -69 -76 -205 -182 -292 -228 l-57 -31 -86 30 c-156 56 -395 90 -768 111
-185 11 -390 4 -440 -16 -8 -3 -46 25 -92 68 -393 366 -462 942 -166 1382 178
263 474 453 796 510 110 19 311 20 426 0z"/>
<path d="M2510 4858 c0 -7 -21 -327 -46 -711 -26 -383 -45 -700 -42 -703 6 -5
1099 -106 1104 -102 5 6 41 373 37 381 -2 4 -177 7 -389 7 -211 0 -384 3 -384
8 0 4 37 249 82 544 45 296 80 540 77 542 -2 3 -87 12 -189 20 -102 9 -200 19
-217 22 -23 3 -33 1 -33 -8z"/>
</g>
</svg>
