<?xml version="1.0" encoding="utf-8"?>
<!-- Generator: Adobe Illustrator 19.0.0, SVG Export Plug-In . SVG Version: 6.00 Build 0)  -->
<svg version="1.1" id="Luigi" xmlns="http://www.w3.org/2000/svg" xmlns:xlink="http://www.w3.org/1999/xlink" x="0px" y="0px"
	 viewBox="-112 84.4 762.7 624.6" style="enable-background:new -112 84.4 762.7 624.6;" xml:space="preserve">
<style type="text/css">
	.st0{fill:#2E4F28;}
	.st1{fill:#ED1C24;}
	.st2{fill:#FFD503;}
	.st3{fill:#FFFFFF;}
	.st4{fill:#22B34B;}
	.st5{fill:#2B5293;}
	.st6{fill:#FDD1B0;}
	.st7{fill:#2DC3EA;}
	.st8{fill:#884C2F;}
	.st9{fill:none;}
</style>
<g id="XMLID_1_">
	<g>
		<path class="st0" d="M409.3,313.3c0,0-1.9,14.5,1.9,30c-5.2,2.8-11,8.9-13.9,21.8c-1.9,8.6-1,16.6,1.7,23.9
			c-7.1,11.1-28.8,44.2-57.9,82.1c1.3-6.2,2-11.4,2.3-15.5c16.2-11.2,26.3-34,18.6-63.3c11.4-14.6,14.9-32.6,13.4-48.7
			c-1.7-17.7-10.2-32.8-23.4-42.2c-7.6-5.4-20.3-10.7-37.8-8.7c-6.3-21.7-12.5-39.7-15.7-48.5c14-17.8,24.4-34.3,31.6-49.1
			c35.5,8.2,68.5,24.3,96.9,47.3c-15.7-7.8-33.5-8.1-44.4,5.8C368.6,266.1,391.3,292,409.3,313.3z"/>
		<path class="st0" d="M506.1,456c4.5-2.3,8-5,10.6-7.9c-6,84.3-55,156.2-124.7,194.8l-0.2-0.5c-3.3-7.1-6.8-13.9-10.4-20.4h0.1
			l-0.3-4.2c0,0-1.3-17.1-1.5-20.6c8.7-11.8,60.4-81.9,104.5-138.1C491.7,460.2,499.2,459.4,506.1,456z"/>
		<path class="st0" d="M185,544.5c1,3.5,1.9,6.6,2.6,9.4c-26.1,10.8-46.1,27.8-53.5,34.6c-4.6-1-9.5-1-14.9,0.3
			c-10.2,2.4-15.7,6.6-18.5,9.8c-43.7-45.5-69.8-108-67.5-175.9c0.5-13.8,2.1-27.4,4.8-40.6c4.2,3.5,8.7,6.3,13.2,8.4
			c-7.7,13.8-6.6,28.7-4.2,41.1c3,14.9,13.7,33.6,34.1,47.1c13.9,9.1,31.8,12.4,47.9,10.1c1.1,7.1,2.9,13.4,0.6,21.8
			c-2.5,9.5-13.2,18.1-11,29.9c2.2,11.9,21.7,19.7,37.4,11.2c0.4-0.2,0.8-0.4,1.2-0.7C171.8,557,180.7,549.7,185,544.5z"/>
		<path class="st1" d="M277.2,493.9c0,0,5.6,2.1,7.4,13.8c-3.9,6.9-8.4,11.6-13.4,14.1c-11.2,5.5-24.2-0.5-30.6-15.2
			c-2.1-4.7-3.7-10.1-4.9-15.2C243,492.2,259.6,493.9,277.2,493.9z"/>
		<path class="st2" d="M370.4,643.2c3.7,0.8,6.9,2.6,9.8,5.9c-8.2,3.9-16.6,7.5-25.3,10.5c-0.8-9,2.5-13,5.7-15.1
			C362.6,643.2,366.2,642.2,370.4,643.2z"/>
		<path class="st3" d="M636.5,309.5c5.3,10.3-18.3,36.2-52.1,52.8c0,0-11.6,23.9-34.2,39.2c-22.6,15.3-46.5,13.6-50.1,13.3
			c-3.6-0.3-4.6,0.7,1,5.3c1.8,1.5,5.5,3,10.5,3.9c0.1,5.1-0.8,15.3-9.2,18c-11.3,3.6-36.2,2.7-62.8-22.9
			c-23.4-22.5-32.5-37.5-28.2-51.5c1.6-5.1,3.6-8.2,5.5-10.1c8.4,14.3,23.2,21.2,25,19.4c1.7-1.7-8.6-13.9-14.3-29.9
			c-5.6-15.9-5.4-35.7-5.4-35.7s-7.4-11.9-18.4-24.9c-10-11.7-15.9-22.9-7.7-32.9c4.6-5.6,20.7-9.2,37.6,6
			c13.9,12.5,19.2,23.7,19.2,23.7s14.3,3.3,25.2,12.9c11,9.6,18.9,22.6,20.6,20.9c1.7-1.7-6.9-33.9-34.2-39.8
			c37.7-65.1,66.5-85,75.7-80.1c6,3.2,7.3,16.6-2.3,36.5c-6.8,14.1-11.2,22.7-13.7,27.5c-1,1-2.1,2-3.1,3
			c-8.5-4.8-14.1-5.4-14.7-3.9c-1,2.1,9.3,5.6,33.5,31.5c24.2,25.9,38.8,42.8,40.5,41.5c0.7-0.6-0.1-3.4-3.2-8.6
			c2.6-2.3,9.1-7.4,20.8-13.3C614,303.5,631.2,299.2,636.5,309.5z"/>
		<path class="st3" d="M622,269.3c5.9,6.3,2,15.3-2.1,21.5c-13.1,2.2-30,9.2-49.2,24c-3.5-4.6-7.8-10.3-13.2-16.9
			C579.5,278.9,612.3,259.1,622,269.3z"/>
		<path class="st3" d="M607,243c1.6,3.7,1,8.5,0.1,12.2c-17.4,4.3-39.2,17.3-55.8,35.2c-7.1-8.2-13.8-14.5-19.8-19.2
			c4.3-4,17.6-15.6,35.7-26.2C589.5,232.1,604.1,236,607,243z"/>
		<path class="st4" d="M430.7,428.4c10.2,9.4,24.5,20.8,39.6,26.9c-47.3,60.8-101,135.9-101.6,136.6l-1.3,1.8l0.5,6
			c-21.8-32.8-44.8-55.2-54.5-64c4.2-5.4,8.4-11.9,12.3-20c2.4-4.8,4.4-9.5,6.2-13.9c31.2-39.3,61.4-81,74.5-99.4
			C413.1,412,422.2,420.5,430.7,428.4z"/>
		<path class="st5" d="M371,631.4c-5.8-0.9-12.3,1-16.7,3.9c-9,5.9-9.8,16.1-8.6,27.3c-0.5,0.2-1.1,0.3-1.6,0.5
			c-13.1-38.5-30.7-68.5-34.2-74.3c0.1-1.3,0.2-2.6,0.3-3.8c1.2-13.2-6.5-20-11.9-22.6l0.4-12.1c2.2-1.6,4.5-3.5,6.8-5.7
			C316,554.5,347.3,586.3,371,631.4z"/>
		<path class="st6" d="M361.9,344.7c1.1,11.2,1,50.7-45.9,61.9c-36.8,8.9-59.4-14.8-60.3-15.7l-9.8,9.9c0.3,0.3,2.6,2.5,6.6,5.3
			c-7.8,0-18.8-1-31-5.3c-22.6-7.9-35.9-20.4-37.9-19.4s-11,14.3-10.6,39.2c0.3,24.9,13.9,50.5,44.5,54.8c1.6,0.2,3.1,0.4,4.7,0.5
			c7,40.1,20.1,56.2,37.7,56.7c18.4,0.5,27.4-11.5,34.6-30.9c5.2-14.1,7.3-24.6,8.1-29.3c8.1-3.5,9.8-8.4,8.9-9l0.4-1.5
			c3.9,1.2,8.3,1.6,13.3,1c1.6-0.2,3.2-0.5,4.8-0.9c-1.6,10.5-5.9,31.4-17.1,53.1c-6,11.7-12.3,20.2-18.7,25.2
			c-6.3,5-12.6,10-33.9,10.3v10.3h-0.4c0,0,13.8,0.7,27.2-4.4l-0.2,9.8c0,0-10,9.2-43.6,7.5c-33.6-1.7-40.6-9.2-40.6-9.2
			s-6-30.4-20.9-56.8c-14.9-26.4-31.4-40.6-31.4-40.6s-10.5,12.2-34.1,11.7c-23.7-0.5-44.1-18.1-52.3-34.1s-10.2-46.6,3.5-55.5
			c9.8-6.4,23-5.1,30.1-3.6c4.7,7.5,14.1,20.5,27,28.2c18.9,11.4,33.7,2.2,35.9-20.7c1.7-18.4-8.7-29.9-11.7-31.1
			c-3-1.2-13.9-1-23.2-11.2c-7-7.8-14.3-21.6-17.9-28.9c2.5-6.6,5.4-13.8,8.9-21.7c14.6,6.8,27,0.7,31.8-2.3
			c2.1,4.3,4.5,6.4,5.4,5.5c2.3-2.3-1.3-19.6,13.3-33.2c17.7-16.5,39.9-2.6,41.5-3.7c1.5-1-4.5-9.9-13.4-16.4
			c0.8-0.9,1.7-2.2,2.9-3.6c8.5-3.1,23-6.8,44.9-7.2c-0.9,9.3,0.6,17.4,2.1,17.2c1.7-0.2,7-17.5,20.6-18.6c11.9-1,15.9,12,17.3,12
			c0.4,0,1-2.7,1.1-6.7l1.5,0.4c1.2,3.3,8.8,23.7,16.8,51.3c-1.2,0.3-2.4,0.7-3.6,1.1c-5.4-28.8-22.7-37.4-30.1-37.1
			c-5.3,0.2-8.8,2.6-11.6,5.7c-4.1,4.4-7.5,10.8-6.4,25c1.2,15.9,6.9,26.3,9.9,30.8c-7.8,8.8-11.1,16.3-11.4,16.9l12.9,5.4
			c0.5-1.1,12.3-27.8,46.6-36.3c13.9-3.4,25.8-1.7,35.3,5C353.9,318.5,360.6,330.9,361.9,344.7z M222.3,370
			c10.8-4.5,21.4-18.3,9.6-55.7c-4.1-13.1-13.1-26.7-23.3-32c-7.2-3.7-15.3-4.7-21.9-2.5c-6.2,2.1-11,6.6-14,13
			c-5.1,10.6-3.8,29,2.4,45.2c6.9,18,15.7,26.5,24.4,31.2C207.5,373.5,217.2,372.1,222.3,370z M130.7,456.5c1,0,3.8-6.2-1-17.9
			c-4.7-11.7-17.2-27.9-33.4-32.1c-16.2-4.2-21.2,8.2-21.9,13.9c-0.6,4.5,0.7,7.7,3.5,2c2.7-5.6,13-13.4,32.4,4.5
			c0.5,0.5,0.9,0.9,1.4,1.4C94.2,427,92,440.4,93.4,441.1c1.5,0.7,3-3.2,11.2-5c5.8-1.3,11.1-0.3,14.9,0.9
			C127.6,447.8,129.4,456.5,130.7,456.5z"/>
		<path class="st5" d="M329.9,650.7c1.8,4.8,3.6,9.7,5.4,14.8c-19.3,4.9-39.4,7.5-60.1,7.5c-0.2-2.2-0.5-4.5-0.9-6.9
			C284,664.7,306,660.6,329.9,650.7z"/>
		<path class="st4" d="M328.1,136.4c5.9,10.6,0.4,45.3-37.3,95.1c-2.1-0.4-4.9-0.9-8.3-1.3c-0.8-3.1-2-6.1-3.7-9
			c-7.3-12.3-25.2-10.3-31.9,3c-0.6,1.2-1.2,2.5-1.6,3.9c-11,0.3-23,1.4-35.3,4c2.6-3,5.4-6.4,8.7-10.2
			c19.3-22.6,45.8-44.2,51.5-48.8c5.6-4.6,1.7-4.6-6.3-0.3c-8,4.3-29.9,16.3-53.8,42.5c-16,17.6-23.3,25.8-26.4,29.3
			c-13.5-4-32,0.5-37.4,19.8c-2.1,7.5-2.4,14.3-1.8,20.1c-10.2,6.4-18.5,5.4-22.6,4.2c30.4-62.8,86.3-113.6,128.8-140.3
			c37.1-23.3,58.7-21.3,66.2-19.4C322.2,130.4,326.2,133,328.1,136.4z"/>
		<path class="st6" d="M311.9,462l-0.4,1.5c-1.5-1-8.7,4-30.4,3.5c-6.8-0.2-12.6-0.7-17.3-1.3c10.6-6.8,18.9-16.6,23.2-28.3
			C287,437.3,294.5,456.8,311.9,462z"/>
		<path class="st4" d="M301.2,591.8c0.1,0.2,12,19.4,24,47.2c-24.3,10-46.8,12.9-54.3,13.6c-6.4-19.3-18.9-24.5-26-25.8
			c-0.4-0.1-0.8-0.1-1.2-0.2c-9.7-19.6-21.5-35.9-31.3-47.8c9.6,2.6,28.3,6.4,50.9,4.5c18.7-1.5,27.4-6.2,31.4-10
			c3.5,2.2,7.1,6.7,5.9,15.9l-0.2,1.4L301.2,591.8z"/>
		<path class="st3" d="M295.1,474.8c-0.5,2.4-1.1,6.5-2.2,7.9c-1.7,2-20.7,1.2-34.6,1c-8.4-0.1-19-1.9-24.7-2.9
			c-0.3-1.8-0.5-3.4-0.7-4.8c4.8-0.4,9.4-1.3,13.9-2.6c7.9,1.1,21.6,2.7,36,2.6C287.6,476,291.6,475.5,295.1,474.8z"/>
		<path class="st3" d="M292.1,298.6c-2,0.7-3.9,1.5-5.6,2.4c-1.3-4.8-4.2-12.7-9.9-18.1c-4-3.8-8.6-5.2-12.7-3.9
			c-3,0.9-5.5,3.2-7.3,6.4c-0.1-6.9,1.5-11.9,4.7-15.4c1.9-2.1,6-3.5,8.4-3.6C277.3,265.9,288.1,275.2,292.1,298.6z"/>
		<path class="st7" d="M274.4,285c5.4,5.1,8.1,13,9.2,17.3c-1.7,0.9-3.4,1.9-5,2.9c-1.1-3.8-2.8-7.7-4.7-10.1
			c-4.6-5.5-12.1-7.1-16.2,1.3c-0.3-1.4-0.6-2.9-0.8-4.5h0.2c1.2-5.3,3.9-9,7.5-10.1C267.7,280.9,271.2,282,274.4,285z"/>
		<path class="st3" d="M260.2,658.5c4.3,15.1,4.3,26.4,0,32.5c-2.5,3.6-6.6,5.6-12.3,6c-6.8,0.5-13.5-4.8-17.4-8.8
			c4-7.3,5.5-16.9,4.6-28.6c-0.6-7.3-2.5-13.4-5-18.5c3.4-2.2,8.1-3.8,12.7-2.9C250.9,639.8,256.9,647,260.2,658.5z"/>
		<path d="M231.9,314.3c11.8,37.4,1.2,51.2-9.6,55.7c-5.1,2.1-14.8,3.5-22.8-0.8c-8.7-4.7-17.5-13.2-24.4-31.2
			c-6.2-16.2-7.5-34.6-2.4-45.2c3-6.4,7.8-10.9,14-13c6.6-2.2,14.7-1.2,21.9,2.5C218.8,287.6,227.8,301.2,231.9,314.3z M219.4,363
			c15-6.4,10.4-31.2,5.2-46.7c-3.6-10.8-11.3-23.1-19.6-27.4c-5.3-2.7-11.3-3.6-15.9-2c-4.1,1.5-7.5,4.6-9.6,9.1
			c-2.4,5.1-3.2,12.8-2.2,21.1c2.2-6.1,5.7-9.4,8.6-11c4.7-2.8,10.7-3.1,16.5-0.9c11.3,4.3,20.5,22.4,20.5,40.2c0,9.9-2,15.2-5,18.1
			C218.5,363.3,219,363.2,219.4,363z M211.1,363.9c4.4-1.1,8.9-3.9,8.9-18.5c0-18.1-9.7-34-18.7-37.5c-4.9-1.9-10-1.6-13.9,0.7
			c-4.6,2.7-7.6,8-8.6,15.4h-0.3c0.9,3.8,2.1,7.6,3.7,11.3c0,0,0.1,0.1,0.1,0.2l-0.2-2.1c2-18.6,14-17.5,21.3-9.6
			c7.3,7.9,10,21.5,7.3,31.5c-1.2,4.2-3.1,6.4-5.1,7.5C207.4,363.4,209.3,363.7,211.1,363.9z M196.5,338.7c2.3-0.5,3.6-3.7,2.8-7.1
			c-0.7-3.4-3.2-5.8-5.6-5.3c-2.3,0.5-3.6,3.7-2.8,7.1C191.7,336.8,194.2,339.2,196.5,338.7z"/>
		<path class="st4" d="M237.4,140.5c-3.5,2.3-7.1,4.8-10.7,7.5c-7.6-21.7-32-36.9-60-27.1c-12.3,4.3-23.9,15.7-28.1,31.1
			c-3.3,12-1.9,27,4.1,37.7c5.7,10.3,13.3,16.8,18,20.1c-20,23.3-38.2,49.9-51.6,78.2c-22.3,47.2-27.2,73.5-28.2,84.4
			c-6.9-0.1-15.1,1.6-21.7,7.8c-8.3-4-21.7-12.8-30-30.8c-10.9-23.7,4.1-46.2,13.1-54.5c0.9,9.1,2.8,14.8,4.8,14.7
			c2.4-0.2-1-22.9,13.6-78s44-96.3,63.4-111.9c19.7-15.9,38.8-20.9,58.8-19.6C202,101.4,222.6,114.3,237.4,140.5z"/>
		<path class="st3" d="M224.6,316.3c5.2,15.5,9.8,40.3-5.2,46.7c-0.4,0.2-0.9,0.3-1.5,0.5c3-2.9,5-8.2,5-18.1
			c0-17.8-9.2-35.9-20.5-40.2c-5.8-2.2-11.8-1.9-16.5,0.9c-2.9,1.6-6.4,4.9-8.6,11c-1-8.3-0.2-16,2.2-21.1c2.1-4.5,5.5-7.6,9.6-9.1
			c4.6-1.6,10.6-0.7,15.9,2C213.3,293.2,221,305.5,224.6,316.3z"/>
		<path class="st5" d="M231.8,627.3c-3.4,0.8-6.5,2.2-8.8,4.1c-4.2-4.4-9-7.3-13.3-8.8c-6.1-2.2-12.4-1.9-17.4,0.6
			c-7.3-20.6-20.2-35.8-26.8-42.6c6.4-4.7,14-9.6,22.5-13.6C194.6,573.3,215.6,594.8,231.8,627.3z"/>
		<path class="st3" d="M223.1,660.6c0.9,11.9-1.2,20.9-6.1,25.9c-4.7,4.8-11.4,5.4-16.1,5.1c-7.1-0.4-9.6-4.2-10.5-7
			c0.8-0.7,1.6-1.5,2.3-2.3c7.3-8.4,9.9-22.1,7.5-38.7c-0.5-3.5-1.4-6.7-2.6-9.8c2.2-1.1,5.2-1.2,8.4-0.1
			C213.1,636.3,221.9,644.8,223.1,660.6z"/>
		<path class="st7" d="M220,345.4c0,14.6-4.5,17.4-8.9,18.5c-1.8-0.2-3.7-0.5-5.5-1.1c2-1.1,3.9-3.3,5.1-7.5c2.7-10,0-23.6-7.3-31.5
			c-7.3-7.9-19.3-9-21.3,9.6l0.2,2.1c0-0.1-0.1-0.2-0.1-0.2c-1.6-3.7-2.8-7.5-3.7-11.3h0.3c1-7.4,4-12.7,8.6-15.4
			c3.9-2.3,9-2.6,13.9-0.7C210.3,311.4,220,327.3,220,345.4z"/>
		<path class="st3" d="M222.1,151.4c-3.4,2.6-6.8,5.3-10.3,8.1l-1.5-3.4c-12.1,7.8-21.3,14.3-21.3,14.3
			c-6.7-18.4-18.8-38.2-18.8-38.2c-8.9,4.3-17.5,9.3-17.5,9.3l-2.2-0.9c4.1-6.3,10.2-11.9,18.2-14.8
			C194.2,116.6,215.7,131.1,222.1,151.4z"/>
		<path class="st3" d="M188.3,645.4c1.9,12.9,0.2,23.5-4.7,29.2c-2.8,3.2-6.6,4.8-11.6,4.8c-12.4,0-16.1-9.5-17.2-14.4
			c0.9-0.8,1.8-1.6,2.6-2.5c10.9-12.2,12.6-26.8,7.2-41.8c2.1-0.2,4.3,0.5,5.4,0.9C177.5,624.3,186.5,632.9,188.3,645.4z"/>
		<path class="st3" d="M168.6,168.9c4.9,9.5,8.4,16.4,10.6,20.6c-4.5,4.6-9,9.4-13.3,14.3c-4.6-2.4-11.4-7.1-16.1-15.5
			c-5.5-9.7-7.5-19.9-5.3-32.9c0.8-4.7,2.8-9.9,6-14.8l2.2,0.9C152.7,141.5,160.1,152.5,168.6,168.9z"/>
		<path class="st4" d="M177.4,611.8c-1.1-0.6-2.3-1.1-3.4-1.5c-5.2-1.9-10.3-2.1-14.7-0.7c-3.3-5.7-7-10.4-11.2-14
			c2.5-2.5,5.8-5.7,10-9.2C162.9,591.4,170.7,600.4,177.4,611.8z"/>
		<path class="st8" d="M173.5,514.7c2.9,5.7,5.4,11.7,7.5,17.5c-4.4,9.6-11.6,10.2-16,9.5c3.2-7.7,1.8-16,0.3-15.7
			c-2.2,0.5-7.2,14.9-16.9,16.2c-9.7,1.2-17.7-2-17.4-9.5c0.2-7.5,10.2-13,11.4-27.2c0.8-9.3-0.7-16.1-1.9-19.6
			c3.4-1.2,6.6-2.6,9.6-4.3C150.1,481.6,162,492.3,173.5,514.7z"/>
		<path class="st3" d="M154.7,626c3.3,17.9-7,36.5-23.2,31.9c-16.3-4.6-17.3-25.2-11.6-40.8c0,0-5.4-5.4-8.9-9.2
			c2.9-2.5,7.5-5.7,14.2-7.8C137.1,596.4,151.4,608,154.7,626z"/>
		<path class="st8" d="M143.8,374.4c4.4,5.4,6.1,24.1-3.1,31.6c-8.6,7-33.3-14.7-45-41.9c1-6.5,3-15.5,6.7-27.2
			c2.1,5.1,7,14.4,16.8,22.8C133.6,372.2,139.6,368.9,143.8,374.4z"/>
		<path d="M129.7,438.6c4.8,11.7,2,17.9,1,17.9c-1.3,0-3.1-8.7-11.2-19.5c-3.8-1.2-9.1-2.2-14.9-0.9c-8.2,1.8-9.7,5.7-11.2,5
			c-1.4-0.7,0.8-14.1,18.3-12.8c-0.5-0.5-0.9-0.9-1.4-1.4c-19.4-17.9-29.7-10.1-32.4-4.5c-2.8,5.7-4.1,2.5-3.5-2
			c0.7-5.7,5.7-18.1,21.9-13.9C112.5,410.7,125,426.9,129.7,438.6z"/>
	</g>
</g>
<path d="M179.2,189.5c0,0,17.7-18.5,32.6-30l2.9,5.2l-33,29.7L179.2,189.5z"/>
<g>
	<path class="st9" d="M292.1,298.6c-4-23.4-14.8-32.7-22.4-32.2c-2.4,0.1-6.5,1.5-8.4,3.6c-3.2,3.5-4.8,8.5-4.7,15.4
		c1.8-3.2,4.3-5.5,7.3-6.4c4.1-1.3,8.7,0.1,12.7,3.9c5.7,5.4,8.6,13.3,9.9,18.1C288.2,300.1,290.1,299.3,292.1,298.6z"/>
	<path class="st9" d="M173.8,127.9l36.5,28.2l1.5,3.4c3.5-2.8,6.9-5.5,10.3-8.1c-6.4-20.3-27.9-34.8-53.4-25.6
		c-8,2.9-14.1,8.5-18.2,14.8c-3.2,4.9-5.2,10.1-6,14.8c-2.2,13-0.2,23.2,5.3,32.9c4.7,8.4,11.5,13.1,16.1,15.5
		c4.3-4.9,8.8-9.7,13.3-14.3l-27.4-48.4L173.8,127.9z"/>
	<path class="st9" d="M273.9,295.1c1.9,2.4,3.6,6.3,4.7,10.1c1.6-1,3.3-2,5-2.9c-1.1-4.3-3.8-12.2-9.2-17.3c-3.2-3-6.7-4.1-9.8-3.2
		c-3.6,1.1-6.3,4.8-7.5,10.1h-0.2c0.2,1.6,0.5,3.1,0.8,4.5C261.8,288,269.3,289.6,273.9,295.1z"/>
	<path class="st9" d="M235.7,491.4c1.2,5.1,2.8,10.5,4.9,15.2c6.4,14.7,19.4,20.7,30.6,15.2c5-2.5,9.5-7.2,13.4-14.1
		c-1.8-11.7-7.4-13.8-7.4-13.8C259.6,493.9,243,492.2,235.7,491.4z"/>
	<path class="st9" d="M121.9,288.7c4.1,1.2,12.4,2.2,22.6-4.2c-0.6-5.8-0.3-12.6,1.8-20.1c5.4-19.3,23.9-23.8,37.4-19.8
		c3.1-3.5,10.4-11.7,26.4-29.3c23.9-26.2,45.8-38.2,53.8-42.5c8-4.3,11.9-4.3,6.3,0.3c-5.7,4.6-32.2,26.2-51.5,48.8
		c-3.3,3.8-6.1,7.2-8.7,10.2c12.3-2.6,24.3-3.7,35.3-4c0.4-1.4,1-2.7,1.6-3.9c6.7-13.3,24.6-15.3,31.9-3c1.7,2.9,2.9,5.9,3.7,9
		c3.4,0.4,6.2,0.9,8.3,1.3c37.7-49.8,43.2-84.5,37.3-95.1c-1.9-3.4-5.9-6-11.2-7.4c-7.5-1.9-29.1-3.9-66.2,19.4
		C208.2,175.1,152.3,225.9,121.9,288.7z"/>
	<path class="st9" d="M140.7,406c9.2-7.5,7.5-26.2,3.1-31.6c-4.2-5.5-10.2-2.2-24.6-14.7c-9.8-8.4-14.7-17.7-16.8-22.8
		c-3.7,11.7-5.7,20.7-6.7,27.2C107.4,391.3,132.1,413,140.7,406z"/>
	<path class="st9" d="M295.1,474.8c-3.5,0.7-7.5,1.2-12.3,1.2c-14.4,0.1-28.1-1.5-36-2.6c-4.5,1.3-9.1,2.2-13.9,2.6
		c0.2,1.4,0.4,3,0.7,4.8c5.7,1,16.3,2.8,24.7,2.9c13.9,0.2,32.9,1,34.6-1C294,481.3,294.6,477.2,295.1,474.8z"/>
	<path class="st9" d="M260.3,550.6c21.3-0.3,27.6-5.3,33.9-10.3c6.4-5,12.7-13.5,18.7-25.2c11.2-21.7,15.5-42.6,17.1-53.1
		c-1.6,0.4-3.2,0.7-4.8,0.9c-4.9,0.7-9.4,0.2-13.3-1c-17.4-5.2-24.9-24.6-24.9-24.6c-4.3,11.7-12.6,21.5-23.2,28.3
		c4.7,0.6,10.5,1.1,17.3,1.3c21.7,0.5,28.9-4.5,30.4-3.5c0.9,0.6-0.8,5.5-8.9,9c-0.8,4.7-2.9,15.2-8.1,29.3
		c-7.2,19.4-16.2,31.4-34.6,30.9c-17.6-0.5-30.7-16.6-37.7-56.7c-1.6-0.1-3.1-0.3-4.7-0.5c-30.6-4.3-44.2-29.9-44.5-54.8
		c-0.4-24.9,8.6-38.2,10.6-39.2s15.3,11.5,37.9,19.4c12.2,4.3,23.2,5.3,31,5.3c-4-2.8-6.3-5-6.6-5.3l9.8-9.9
		c0.9,0.9,23.5,24.6,60.3,15.7c46.9-11.2,47-50.7,45.9-61.9c-1.3-13.8-8-26.2-17.9-33.2c-9.5-6.7-21.4-8.4-35.3-5
		c-34.3,8.5-46.1,35.2-46.6,36.3l-12.9-5.4c0.3-0.6,3.6-8.1,11.4-16.9c-3-4.5-8.7-14.9-9.9-30.8c-1.1-14.2,2.3-20.6,6.4-25
		c2.8-3.1,6.3-5.5,11.6-5.7c7.4-0.3,24.7,8.3,30.1,37.1c1.2-0.4,2.4-0.8,3.6-1.1c-8-27.6-15.6-48-16.8-51.3l-1.5-0.4
		c-0.1,4-0.7,6.7-1.1,6.7c-1.4,0-5.4-13-17.3-12c-13.6,1.1-18.9,18.4-20.6,18.6c-1.5,0.2-3-7.9-2.1-17.2
		c-21.9,0.4-36.4,4.1-44.9,7.2c-1.2,1.4-2.1,2.7-2.9,3.6c8.9,6.5,14.9,15.4,13.4,16.4c-1.6,1.1-23.8-12.8-41.5,3.7
		c-14.6,13.6-11,30.9-13.3,33.2c-0.9,0.9-3.3-1.2-5.4-5.5c-4.8,3-17.2,9.1-31.8,2.3c-3.5,7.9-6.4,15.1-8.9,21.7
		c3.6,7.3,10.9,21.1,17.9,28.9c9.3,10.2,20.2,10,23.2,11.2s13.4,12.7,11.7,31.1c-2.2,22.9-17,32.1-35.9,20.7
		c-12.9-7.7-22.3-20.7-27-28.2c-7.1-1.5-20.3-2.8-30.1,3.6c-13.7,8.9-11.7,39.5-3.5,55.5s28.6,33.6,52.3,34.1
		c23.6,0.5,34.1-11.7,34.1-11.7s16.5,14.2,31.4,40.6c14.9,26.4,20.9,56.8,20.9,56.8s7,7.5,40.6,9.2c33.6,1.7,43.6-7.5,43.6-7.5
		l0.2-9.8c-13.4,5.1-27.2,4.4-27.2,4.4h0.4V550.6z"/>
	<path class="st9" d="M298.5,244.2c3.2,8.8,9.4,26.8,15.7,48.5c17.5-2,30.2,3.3,37.8,8.7c13.2,9.4,21.7,24.5,23.4,42.2
		c1.5,16.1-2,34.1-13.4,48.7c7.7,29.3-2.4,52.1-18.6,63.3c-0.3,4.1-1,9.3-2.3,15.5c29.1-37.9,50.8-71,57.9-82.1
		c-2.7-7.3-3.6-15.3-1.7-23.9c2.9-12.9,8.7-19,13.9-21.8c-3.8-15.5-1.9-30-1.9-30c-18-21.3-40.7-47.2-26.7-65.1
		c10.9-13.9,28.7-13.6,44.4-5.8c-28.4-23-61.4-39.1-96.9-47.3C322.9,209.9,312.5,226.4,298.5,244.2z"/>
	<path class="st9" d="M470.3,455.3c-15.1-6.1-29.4-17.5-39.6-26.9c-8.5-7.9-17.6-16.4-24.3-26c-13.1,18.4-43.3,60.1-74.5,99.4
		c-1.8,4.4-3.8,9.1-6.2,13.9c-3.9,8.1-8.1,14.6-12.3,20c9.7,8.8,32.7,31.2,54.5,64l-0.5-6l1.3-1.8
		C369.3,591.2,423,516.1,470.3,455.3z"/>
	<path class="st9" d="M551.3,290.4c16.6-17.9,38.4-30.9,55.8-35.2c0.9-3.7,1.5-8.5-0.1-12.2c-2.9-7-17.5-10.9-39.8,2
		c-18.1,10.6-31.4,22.2-35.7,26.2C537.5,275.9,544.2,282.2,551.3,290.4z"/>
	<path class="st9" d="M181,532.2c-2.1-5.8-4.6-11.8-7.5-17.5c-11.5-22.4-23.4-33.1-23.4-33.1c-3,1.7-6.2,3.1-9.6,4.3
		c1.2,3.5,2.7,10.3,1.9,19.6c-1.2,14.2-11.2,19.7-11.4,27.2c-0.3,7.5,7.7,10.7,17.4,9.5c9.7-1.3,14.7-15.7,16.9-16.2
		c1.5-0.3,2.9,8-0.3,15.7C169.4,542.4,176.6,541.8,181,532.2z"/>
	<path class="st9" d="M148.1,595.6c4.2,3.6,7.9,8.3,11.2,14c4.4-1.4,9.5-1.2,14.7,0.7c1.1,0.4,2.3,0.9,3.4,1.5
		c-6.7-11.4-14.5-20.4-19.3-25.4C153.9,589.9,150.6,593.1,148.1,595.6z"/>
	<path class="st9" d="M570.7,314.8c19.2-14.8,36.1-21.8,49.2-24c4.1-6.2,8-15.2,2.1-21.5c-9.7-10.2-42.5,9.6-64.5,28.6
		C562.9,304.5,567.2,310.2,570.7,314.8z"/>
	<path class="st9" d="M209.7,622.6c4.3,1.5,9.1,4.4,13.3,8.8c2.3-1.9,5.4-3.3,8.8-4.1c-16.2-32.5-37.2-54-43.8-60.3
		c-8.5,4-16.1,8.9-22.5,13.6c6.6,6.8,19.5,22,26.8,42.6C197.3,620.7,203.6,620.4,209.7,622.6z"/>
	<path class="st9" d="M266.5,298.7c-1.8,0.7-2.5,3.7-1.7,6.8c0.8,3.1,2.9,5,4.7,4.4s2.5-3.6,1.7-6.7
		C270.4,300.1,268.3,298.1,266.5,298.7z"/>
	<path class="st9" d="M370.4,643.2c-4.2-1-7.8,0-9.8,1.3c-3.2,2.1-6.5,6.1-5.7,15.1c8.7-3,17.1-6.6,25.3-10.5
		C377.3,645.8,374.1,644,370.4,643.2z"/>
	<path class="st9" d="M371,631.4c-23.7-45.1-55-76.9-65.5-86.8c-2.3,2.2-4.6,4.1-6.8,5.7l-0.4,12.1c5.4,2.6,13.1,9.4,11.9,22.6
		c-0.1,1.2-0.2,2.5-0.3,3.8c3.5,5.8,21.1,35.8,34.2,74.3c0.5-0.2,1.1-0.3,1.6-0.5c-1.2-11.2-0.4-21.4,8.6-27.3
		C358.7,632.4,365.2,630.5,371,631.4z"/>
	<path class="st9" d="M301.2,591.8l-0.8-1.2l0.2-1.4c1.2-9.2-2.4-13.7-5.9-15.9c-4,3.8-12.7,8.5-31.4,10
		c-22.6,1.9-41.3-1.9-50.9-4.5c9.8,11.9,21.6,28.2,31.3,47.8c0.4,0.1,0.8,0.1,1.2,0.2c7.1,1.3,19.6,6.5,26,25.8
		c7.5-0.7,30-3.6,54.3-13.6C313.2,611.2,301.3,592,301.2,591.8z"/>
	<path class="st9" d="M274.3,666.1c0.4,2.4,0.7,4.7,0.9,6.9c20.7,0,40.8-2.6,60.1-7.5c-1.8-5.1-3.6-10-5.4-14.8
		C306,660.6,284,664.7,274.3,666.1z"/>
	<path class="st9" d="M506.1,456c-6.9,3.4-14.4,4.2-21.9,3.1c-44.1,56.2-95.8,126.3-104.5,138.1c0.2,3.5,1.5,20.6,1.5,20.6l0.3,4.2
		h-0.1c3.6,6.5,7.1,13.3,10.4,20.4l0.2,0.5c69.7-38.6,118.7-110.5,124.7-194.8C514.1,451,510.6,453.7,506.1,456z"/>
	<path class="st9" d="M598,311.3c-11.7,5.9-18.2,11-20.8,13.3c3.1,5.2,3.9,8,3.2,8.6c-1.7,1.3-16.3-15.6-40.5-41.5
		c-24.2-25.9-34.5-29.4-33.5-31.5c0.6-1.5,6.2-0.9,14.7,3.9c1-1,2.1-2,3.1-3c2.5-4.8,6.9-13.4,13.7-27.5c9.6-19.9,8.3-33.3,2.3-36.5
		c-9.2-4.9-38,15-75.7,80.1c27.3,5.9,35.9,38.1,34.2,39.8c-1.7,1.7-9.6-11.3-20.6-20.9c-10.9-9.6-25.2-12.9-25.2-12.9
		s-5.3-11.2-19.2-23.7c-16.9-15.2-33-11.6-37.6-6c-8.2,10-2.3,21.2,7.7,32.9c11,13,18.4,24.9,18.4,24.9s-0.2,19.8,5.4,35.7
		c5.7,16,16,28.2,14.3,29.9c-1.8,1.8-16.6-5.1-25-19.4c-1.9,1.9-3.9,5-5.5,10.1c-4.3,14,4.8,29,28.2,51.5
		c26.6,25.6,51.5,26.5,62.8,22.9c8.4-2.7,9.3-12.9,9.2-18c-5-0.9-8.7-2.4-10.5-3.9c-5.6-4.6-4.6-5.6-1-5.3c3.6,0.3,27.5,2,50.1-13.3
		c22.6-15.3,34.2-39.2,34.2-39.2c33.8-16.6,57.4-42.5,52.1-52.8C631.2,299.2,614,303.5,598,311.3z"/>
	<path class="st9" d="M206,633.7c-3.2-1.1-6.2-1-8.4,0.1c1.2,3.1,2.1,6.3,2.6,9.8c2.4,16.6-0.2,30.3-7.5,38.7
		c-0.7,0.8-1.5,1.6-2.3,2.3c0.9,2.8,3.4,6.6,10.5,7c4.7,0.3,11.4-0.3,16.1-5.1c4.9-5,7-14,6.1-25.9
		C221.9,644.8,213.1,636.3,206,633.7z"/>
	<path class="st9" d="M154.7,626c-3.3-18-17.6-29.6-29.5-25.9c-6.7,2.1-11.3,5.3-14.2,7.8c3.5,3.8,8.9,9.2,8.9,9.2
		c-5.7,15.6-4.7,36.2,11.6,40.8C147.7,662.5,158,643.9,154.7,626z"/>
	<path class="st9" d="M134.1,588.5c7.4-6.8,27.4-23.8,53.5-34.6c-0.7-2.8-1.6-5.9-2.6-9.4c-4.3,5.2-13.2,12.5-27.8,6.5
		c-0.4,0.3-0.8,0.5-1.2,0.7c-15.7,8.5-35.2,0.7-37.4-11.2c-2.2-11.8,8.5-20.4,11-29.9c2.3-8.4,0.5-14.7-0.6-21.8
		c-16.1,2.3-34-1-47.9-10.1C60.7,465.2,50,446.5,47,431.6c-2.4-12.4-3.5-27.3,4.2-41.1c-4.5-2.1-9-4.9-13.2-8.4
		c-2.7,13.2-4.3,26.8-4.8,40.6c-2.3,67.9,23.8,130.4,67.5,175.9c2.8-3.2,8.3-7.4,18.5-9.8C124.6,587.5,129.5,587.5,134.1,588.5z"/>
	<path class="st9" d="M242.8,638.2c-4.6-0.9-9.3,0.7-12.7,2.9c2.5,5.1,4.4,11.2,5,18.5c0.9,11.7-0.6,21.3-4.6,28.6
		c3.9,4,10.6,9.3,17.4,8.8c5.7-0.4,9.8-2.4,12.3-6c4.3-6.1,4.3-17.4,0-32.5C256.9,647,250.9,639.8,242.8,638.2z"/>
	<path class="st9" d="M59.2,380.2c6.6-6.2,14.8-7.9,21.7-7.8c1-10.9,5.9-37.2,28.2-84.4c13.4-28.3,31.6-54.9,51.6-78.2
		c-4.7-3.3-12.3-9.8-18-20.1c-6-10.7-7.4-25.7-4.1-37.7c4.2-15.4,15.8-26.8,28.1-31.1c28-9.8,52.4,5.4,60,27.1
		c3.6-2.7,7.2-5.2,10.7-7.5c-14.8-26.2-35.4-39.1-54.5-40.4c-20-1.3-39.1,3.7-58.8,19.6c-19.4,15.6-48.8,56.8-63.4,111.9
		c-14.6,55.1-11.2,77.8-13.6,78c-2,0.1-3.9-5.6-4.8-14.7c-9,8.3-24,30.8-13.1,54.5C37.5,367.4,50.9,376.2,59.2,380.2z"/>
	<path class="st9" d="M170,621.6c-1.1-0.4-3.3-1.1-5.4-0.9c5.4,15,3.7,29.6-7.2,41.8c-0.8,0.9-1.7,1.7-2.6,2.5
		c1.1,4.9,4.8,14.4,17.2,14.4c5,0,8.8-1.6,11.6-4.8c4.9-5.7,6.6-16.3,4.7-29.2C186.5,632.9,177.5,624.3,170,621.6z"/>
	<path d="M646.9,296.2c-2-2.5-5.7-4.5-10.8-5.5c2.8-7.9,5.3-21-2.8-31.4c-2.5-3.2-6.5-5-11.5-5.5c1.2-6.3,1.8-16.2-3.8-23.1
		c-6.9-8.4-31.9-14.1-67.8,9.6c9.2-21.4,12.7-44.3,0.7-53.4c-13.5-10.2-35.2-1.3-60.1,27.6c-14,16.2-23.7,30.7-29.6,40.3
		c-34.4-36.3-77.6-61.3-125.2-72.8c9.5-23.9,10.1-42.1,4.4-52.4c-3.7-6.8-10.8-11.8-19.9-14.1c-11-2.8-34.3-4.1-71,17.4
		c-3.7-6.6-12-19.6-25-30.2c-18.3-15-35.8-19.5-59.1-17.9c-22.4,1.5-55.5,17-81.7,59.8c-26.4,43.2-32.9,74-38.9,104.6
		c-2.3,11.8-3.2,23.6-3.1,33.6c-6.1,2.8-26,13.9-28.4,42.1c-1.5,17.3,4.2,33,13.2,45.2c-4.1,16.9-6.6,34.4-7.2,52.3
		c-2.7,79.4,31.2,151.7,86.6,200.6c-0.8,12.2-0.4,27.2,5.3,34.7c7.5,9.8,20.9,15.5,32.7,12.9c3,9.6,11,20.9,28.1,20.9
		c2.8,0,5.3-0.4,7.8-1c2.7,6.2,8.6,12.5,20.4,13.3c8.7,0.5,16.3-1.5,22.2-5.9c4.4,4.5,13.8,12.2,26.4,11.2
		c9.3-0.7,16.6-4.5,21.2-11.1c2.2-3.1,3.6-6.7,4.5-10.9c137.6,0.4,251.9-108.9,256.7-247.3c0.2-5.4,0.2-10.8,0-16.1
		c8-1.5,17-4.8,26.3-10.8c26.9-17.3,34.2-40.5,34.2-40.5s31.4-15.3,48.2-34.7C652.5,323.1,653.1,304.2,646.9,296.2z M622,269.3
		c5.9,6.3,2,15.3-2.1,21.5c-13.1,2.2-30,9.2-49.2,24c-3.5-4.6-7.8-10.3-13.2-16.9C579.5,278.9,612.3,259.1,622,269.3z M567.2,245
		c22.3-12.9,36.9-9,39.8-2c1.6,3.7,1,8.5,0.1,12.2c-17.4,4.3-39.2,17.3-55.8,35.2c-7.1-8.2-13.8-14.5-19.8-19.2
		C535.8,267.2,549.1,255.6,567.2,245z M427,242.4c-15.7-7.8-33.5-8.1-44.4,5.8c-14,17.9,8.7,43.8,26.7,65.1c0,0-1.9,14.5,1.9,30
		c-5.2,2.8-11,8.9-13.9,21.8c-1.9,8.6-1,16.6,1.7,23.9c-7.1,11.1-28.8,44.2-57.9,82.1c1.3-6.2,2-11.4,2.3-15.5
		c16.2-11.2,26.3-34,18.6-63.3c11.4-14.6,14.9-32.6,13.4-48.7c-1.7-17.7-10.2-32.8-23.4-42.2c-7.6-5.4-20.3-10.7-37.8-8.7
		c-6.3-21.7-12.5-39.7-15.7-48.5c14-17.8,24.4-34.3,31.6-49.1C365.6,203.3,398.6,219.4,427,242.4z M367.9,599.7
		c-21.8-32.8-44.8-55.2-54.5-64c4.2-5.4,8.4-11.9,12.3-20c2.4-4.8,4.4-9.5,6.2-13.9c31.2-39.3,61.4-81,74.5-99.4
		c6.7,9.6,15.8,18.1,24.3,26c10.2,9.4,24.5,20.8,39.6,26.9c-47.3,60.8-101,135.9-101.6,136.6l-1.3,1.8L367.9,599.7z M287.1,556.5
		l-0.2,9.8c0,0-10,9.2-43.6,7.5c-33.6-1.7-40.6-9.2-40.6-9.2s-6-30.4-20.9-56.8c-14.9-26.4-31.4-40.6-31.4-40.6
		s-10.5,12.2-34.1,11.7c-23.7-0.5-44.1-18.1-52.3-34.1s-10.2-46.6,3.5-55.5c9.8-6.4,23-5.1,30.1-3.6c4.7,7.5,14.1,20.5,27,28.2
		c18.9,11.4,33.7,2.2,35.9-20.7c1.7-18.4-8.7-29.9-11.7-31.1s-13.9-1-23.2-11.2c-7-7.8-14.3-21.6-17.9-28.9
		c2.5-6.6,5.4-13.8,8.9-21.7c14.6,6.8,27,0.7,31.8-2.3c2.1,4.3,4.5,6.4,5.4,5.5c2.3-2.3-1.3-19.6,13.3-33.2
		c17.7-16.5,39.9-2.6,41.5-3.7c1.5-1-4.5-9.9-13.4-16.4c0.8-0.9,1.7-2.2,2.9-3.6c8.5-3.1,23-6.8,44.9-7.2
		c-0.9,9.3,0.6,17.4,2.1,17.2c1.7-0.2,7-17.5,20.6-18.6c11.9-1,15.9,12,17.3,12c0.4,0,1-2.7,1.1-6.7l1.5,0.4
		c1.2,3.3,8.8,23.7,16.8,51.3c-1.2,0.3-2.4,0.7-3.6,1.1c-5.4-28.8-22.7-37.4-30.1-37.1c-5.3,0.2-8.8,2.6-11.6,5.7
		c-4.1,4.4-7.5,10.8-6.4,25c1.2,15.9,6.9,26.3,9.9,30.8c-7.8,8.8-11.1,16.3-11.4,16.9l12.9,5.4c0.5-1.1,12.3-27.8,46.6-36.3
		c13.9-3.4,25.8-1.7,35.3,5c9.9,7,16.6,19.4,17.9,33.2c1.1,11.2,1,50.7-45.9,61.9c-36.8,8.9-59.4-14.8-60.3-15.7l-9.8,9.9
		c0.3,0.3,2.6,2.5,6.6,5.3c-7.8,0-18.8-1-31-5.3c-22.6-7.9-35.9-20.4-37.9-19.4s-11,14.3-10.6,39.2c0.3,24.9,13.9,50.5,44.5,54.8
		c1.6,0.2,3.1,0.4,4.7,0.5c7,40.1,20.1,56.2,37.7,56.7c18.4,0.5,27.4-11.5,34.6-30.9c5.2-14.1,7.3-24.6,8.1-29.3
		c8.1-3.5,9.8-8.4,8.9-9c-1.5-1-8.7,4-30.4,3.5c-6.8-0.2-12.6-0.7-17.3-1.3c10.6-6.8,18.9-16.6,23.2-28.3c0,0,7.5,19.5,24.9,24.6
		c3.9,1.2,8.3,1.6,13.3,1c1.6-0.2,3.2-0.5,4.8-0.9c-1.6,10.5-5.9,31.4-17.1,53.1c-6,11.7-12.3,20.2-18.7,25.2
		c-6.3,5-12.6,10-33.9,10.3v10.3h-0.4C259.9,560.9,273.7,561.6,287.1,556.5z M165.5,580.6c6.4-4.7,14-9.6,22.5-13.6
		c6.6,6.3,27.6,27.8,43.8,60.3c-3.4,0.8-6.5,2.2-8.8,4.1c-4.2-4.4-9-7.3-13.3-8.8c-6.1-2.2-12.4-1.9-17.4,0.6
		C185,602.6,172.1,587.4,165.5,580.6z M177.4,611.8c-1.1-0.6-2.3-1.1-3.4-1.5c-5.2-1.9-10.3-2.1-14.7-0.7c-3.3-5.7-7-10.4-11.2-14
		c2.5-2.5,5.8-5.7,10-9.2C162.9,591.4,170.7,600.4,177.4,611.8z M165.3,526c-2.2,0.5-7.2,14.9-16.9,16.2c-9.7,1.2-17.7-2-17.4-9.5
		c0.2-7.5,10.2-13,11.4-27.2c0.8-9.3-0.7-16.1-1.9-19.6c3.4-1.2,6.6-2.6,9.6-4.3c0,0,11.9,10.7,23.4,33.1c2.9,5.7,5.4,11.7,7.5,17.5
		c-4.4,9.6-11.6,10.2-16,9.5C168.2,534,166.8,525.7,165.3,526z M95.7,364.1c1-6.5,3-15.5,6.7-27.2c2.1,5.1,7,14.4,16.8,22.8
		c14.4,12.5,20.4,9.2,24.6,14.7c4.4,5.4,6.1,24.1-3.1,31.6C132.1,413,107.4,391.3,95.7,364.1z M257.7,296.4
		c-0.3-1.4-0.6-2.9-0.8-4.5h0.2c1.2-5.3,3.9-9,7.5-10.1c3.1-0.9,6.6,0.2,9.8,3.2c5.4,5.1,8.1,13,9.2,17.3c-1.7,0.9-3.4,1.9-5,2.9
		c-1.1-3.8-2.8-7.7-4.7-10.1C269.3,289.6,261.8,288,257.7,296.4z M269.5,309.9c-1.8,0.6-3.9-1.3-4.7-4.4c-0.8-3.1-0.1-6.1,1.7-6.8
		c1.8-0.6,3.9,1.4,4.7,4.5C272,306.3,271.3,309.3,269.5,309.9z M276.6,282.9c-4-3.8-8.6-5.2-12.7-3.9c-3,0.9-5.5,3.2-7.3,6.4
		c-0.1-6.9,1.5-11.9,4.7-15.4c1.9-2.1,6-3.5,8.4-3.6c7.6-0.5,18.4,8.8,22.4,32.2c-2,0.7-3.9,1.5-5.6,2.4
		C285.2,296.2,282.3,288.3,276.6,282.9z M258.3,483.7c-8.4-0.1-19-1.9-24.7-2.9c-0.3-1.8-0.5-3.4-0.7-4.8c4.8-0.4,9.4-1.3,13.9-2.6
		c7.9,1.1,21.6,2.7,36,2.6c4.8,0,8.8-0.5,12.3-1.2c-0.5,2.4-1.1,6.5-2.2,7.9C291.2,484.7,272.2,483.9,258.3,483.7z M284.6,507.7
		c-3.9,6.9-8.4,11.6-13.4,14.1c-11.2,5.5-24.2-0.5-30.6-15.2c-2.1-4.7-3.7-10.1-4.9-15.2c7.3,0.8,23.9,2.5,41.5,2.5
		C277.2,493.9,282.8,496,284.6,507.7z M250.7,148.4c37.1-23.3,58.7-21.3,66.2-19.4c5.3,1.4,9.3,4,11.2,7.4
		c5.9,10.6,0.4,45.3-37.3,95.1c-2.1-0.4-4.9-0.9-8.3-1.3c-0.8-3.1-2-6.1-3.7-9c-7.3-12.3-25.2-10.3-31.9,3c-0.6,1.2-1.2,2.5-1.6,3.9
		c-11,0.3-23,1.4-35.3,4c2.6-3,5.4-6.4,8.7-10.2c19.3-22.6,45.8-44.2,51.5-48.8c5.6-4.6,1.7-4.6-6.3-0.3c-8,4.3-29.9,16.3-53.8,42.5
		c-16,17.6-23.3,25.8-26.4,29.3c-13.5-4-32,0.5-37.4,19.8c-2.1,7.5-2.4,14.3-1.8,20.1c-10.2,6.4-18.5,5.4-22.6,4.2
		C152.3,225.9,208.2,175.1,250.7,148.4z M165.9,203.8c-4.6-2.4-11.4-7.1-16.1-15.5c-5.5-9.7-7.5-19.9-5.3-32.9
		c0.8-4.7,2.8-9.9,6-14.8c4.1-6.3,10.1-11.9,18.2-14.8c25.5-9.2,47,5.3,53.4,25.6c-3.4,2.6-6.8,5.3-10.3,8.1
		c-10.3,8.1-32.6,30-32.6,30C174.7,194.1,170.2,198.9,165.9,203.8z M42.3,294.9c0.9,9.1,2.8,14.8,4.8,14.7c2.4-0.2-1-22.9,13.6-78
		c14.6-55.1,44-96.3,63.4-111.9c19.7-15.9,38.8-20.9,58.8-19.6c19.1,1.3,39.7,14.2,54.5,40.4c-3.5,2.3-7.1,4.8-10.7,7.5
		c-7.6-21.7-32-36.9-60-27.1c-12.3,4.3-23.9,15.7-28.1,31.1c-3.3,12-1.9,27,4.1,37.7c5.7,10.3,13.3,16.8,18,20.1
		c-20,23.3-38.2,49.9-51.6,78.2c-22.3,47.2-27.2,73.5-28.2,84.4c-6.9-0.1-15.1,1.6-21.7,7.8c-8.3-4-21.7-12.8-30-30.8
		C18.3,325.7,33.3,303.2,42.3,294.9z M100.7,598.6c-43.7-45.5-69.8-108-67.5-175.9c0.5-13.8,2.1-27.4,4.8-40.6
		c4.2,3.5,8.7,6.3,13.2,8.4c-7.7,13.8-6.6,28.7-4.2,41.1c3,14.9,13.7,33.6,34.1,47.1c13.9,9.1,31.8,12.4,47.9,10.1
		c1.1,7.1,2.9,13.4,0.6,21.8c-2.5,9.5-13.2,18.1-11,29.9c2.2,11.9,21.7,19.7,37.4,11.2c0.4-0.2,0.8-0.4,1.2-0.7
		c14.6,6,23.5-1.3,27.8-6.5c1,3.5,1.9,6.6,2.6,9.4c-26.1,10.8-46.1,27.8-53.5,34.6c-4.6-1-9.5-1-14.9,0.3
		C109,591.2,103.5,595.4,100.7,598.6z M131.5,657.9c-16.3-4.6-17.3-25.2-11.6-40.8c0,0-5.4-5.4-8.9-9.2c2.9-2.5,7.5-5.7,14.2-7.8
		c11.9-3.7,26.2,7.9,29.5,25.9C158,643.9,147.7,662.5,131.5,657.9z M183.6,674.6c-2.8,3.2-6.6,4.8-11.6,4.8
		c-12.4,0-16.1-9.5-17.2-14.4c0.9-0.8,1.8-1.6,2.6-2.5c10.9-12.2,12.6-26.8,7.2-41.8c2.1-0.2,4.3,0.5,5.4,0.9
		c7.5,2.7,16.5,11.3,18.3,23.8C190.2,658.3,188.5,668.9,183.6,674.6z M217,686.5c-4.7,4.8-11.4,5.4-16.1,5.1
		c-7.1-0.4-9.6-4.2-10.5-7c0.8-0.7,1.6-1.5,2.3-2.3c7.3-8.4,9.9-22.1,7.5-38.7c-0.5-3.5-1.4-6.7-2.6-9.8c2.2-1.1,5.2-1.2,8.4-0.1
		c7.1,2.6,15.9,11.1,17.1,26.9C224,672.5,221.9,681.5,217,686.5z M260.2,691c-2.5,3.6-6.6,5.6-12.3,6c-6.8,0.5-13.5-4.8-17.4-8.8
		c4-7.3,5.5-16.9,4.6-28.6c-0.6-7.3-2.5-13.4-5-18.5c3.4-2.2,8.1-3.8,12.7-2.9c8.1,1.6,14.1,8.8,17.4,20.3
		C264.5,673.6,264.5,684.9,260.2,691z M244.9,626.8c-0.4-0.1-0.8-0.1-1.2-0.2c-9.7-19.6-21.5-35.9-31.3-47.8
		c9.6,2.6,28.3,6.4,50.9,4.5c18.7-1.5,27.4-6.2,31.4-10c3.5,2.2,7.1,6.7,5.9,15.9l-0.2,1.4l0.8,1.2c0.1,0.2,12,19.4,24,47.2
		c-24.3,10-46.8,12.9-54.3,13.6C264.5,633.3,252,628.1,244.9,626.8z M275.2,673c-0.2-2.2-0.5-4.5-0.9-6.9
		c9.7-1.4,31.7-5.5,55.6-15.4c1.8,4.8,3.6,9.7,5.4,14.8C316,670.4,295.9,673,275.2,673z M345.7,662.6c-0.5,0.2-1.1,0.3-1.6,0.5
		c-13.1-38.5-30.7-68.5-34.2-74.3c0.1-1.3,0.2-2.6,0.3-3.8c1.2-13.2-6.5-20-11.9-22.6l0.4-12.1c2.2-1.6,4.5-3.5,6.8-5.7
		c10.5,9.9,41.8,41.7,65.5,86.8c-5.8-0.9-12.3,1-16.7,3.9C345.3,641.2,344.5,651.4,345.7,662.6z M354.9,659.6
		c-0.8-9,2.5-13,5.7-15.1c2-1.3,5.6-2.3,9.8-1.3c3.7,0.8,6.9,2.6,9.8,5.9C372,653,363.6,656.6,354.9,659.6z M392,642.9l-0.2-0.5
		c-3.3-7.1-6.8-13.9-10.4-20.4h0.1l-0.3-4.2c0,0-1.3-17.1-1.5-20.6c8.7-11.8,60.4-81.9,104.5-138.1c7.5,1.1,15,0.3,21.9-3.1
		c4.5-2.3,8-5,10.6-7.9C510.7,532.4,461.7,604.3,392,642.9z M584.4,362.3c0,0-11.6,23.9-34.2,39.2c-22.6,15.3-46.5,13.6-50.1,13.3
		c-3.6-0.3-4.6,0.7,1,5.3c1.8,1.5,5.5,3,10.5,3.9c0.1,5.1-0.8,15.3-9.2,18c-11.3,3.6-36.2,2.7-62.8-22.9
		c-23.4-22.5-32.5-37.5-28.2-51.5c1.6-5.1,3.6-8.2,5.5-10.1c8.4,14.3,23.2,21.2,25,19.4c1.7-1.7-8.6-13.9-14.3-29.9
		c-5.6-15.9-5.4-35.7-5.4-35.7s-7.4-11.9-18.4-24.9c-10-11.7-15.9-22.9-7.7-32.9c4.6-5.6,20.7-9.2,37.6,6
		c13.9,12.5,19.2,23.7,19.2,23.7s14.3,3.3,25.2,12.9c11,9.6,18.9,22.6,20.6,20.9c1.7-1.7-6.9-33.9-34.2-39.8
		c37.7-65.1,66.5-85,75.7-80.1c6,3.2,7.3,16.6-2.3,36.5c-6.8,14.1-11.2,22.7-13.7,27.5c-1,1-2.1,2-3.1,3c-8.5-4.8-14.1-5.4-14.7-3.9
		c-1,2.1,9.3,5.6,33.5,31.5c24.2,25.9,38.8,42.8,40.5,41.5c0.7-0.6-0.1-3.4-3.2-8.6c2.6-2.3,9.1-7.4,20.8-13.3
		c16-7.8,33.2-12.1,38.5-1.8C641.8,319.8,618.2,345.7,584.4,362.3z"/>
	<path class="st4" d="M210.3,156.1c-12.1,7.8-21.3,14.3-21.3,14.3c-6.7-18.4-18.8-38.2-18.8-38.2c-8.9,4.3-17.5,9.3-17.5,9.3
		s7.4,11,15.9,27.4c4.9,9.5,8.4,16.4,10.6,20.6c0,0,22.3-21.9,32.6-30L210.3,156.1z"/>
</g>
</svg>
