<?xml version="1.0" encoding="utf-8"?>
<!-- Generator: Adobe Illustrator 19.0.0, SVG Export Plug-In . SVG Version: 6.00 Build 0)  -->
<svg version="1.1" id="Layer_1" xmlns="http://www.w3.org/2000/svg" xmlns:xlink="http://www.w3.org/1999/xlink" x="0px" y="0px"
	 viewBox="0 0 206.9 222.3" style="enable-background:new 0 0 206.9 222.3;" xml:space="preserve">
<style type="text/css">
	.st0{fill:none;stroke:#FFFFFF;stroke-width:4;stroke-linecap:round;stroke-miterlimit:10;}
</style>
<line id="XMLID_10_" class="st0" x1="85.4" y1="89.6" x2="85.4" y2="69.6"/>
<line id="XMLID_5_" class="st0" x1="121.4" y1="89.6" x2="121.4" y2="69.6"/>
<ellipse id="XMLID_1_" class="st0" cx="103.4" cy="79.6" rx="48.4" ry="37"/>
<ellipse id="XMLID_12_" class="st0" cx="103.4" cy="79.6" rx="74.2" ry="56.8"/>
<ellipse id="XMLID_13_" class="st0" cx="103.4" cy="79.6" rx="101.4" ry="77.6"/>
<path id="XMLID_14_" class="st0" d="M103.4,220.2c0,0-15.3,1-15.3-8.5s2.9-55.4,2.9-55.4"/>
<path id="XMLID_16_" class="st0" d="M103.4,220.2c0,0,15.3,1,15.3-8.5s-2.9-55.4-2.9-55.4"/>
<path id="XMLID_17_" class="st0" d="M79.3,210.7c0,0,3.9-71-77.3-55.5C2.1,155.2-3.1,240,79.3,210.7z"/>
<path id="XMLID_18_" class="st0" d="M127.5,210.7c0,0-3.9-71,77.3-55.5C204.8,155.2,209.9,240,127.5,210.7z"/>
</svg>
