<?xml version="1.0" encoding="utf-8"?>
<!-- Generator: Adobe Illustrator 19.0.0, SVG Export Plug-In . SVG Version: 6.00 Build 0)  -->
<svg version="1.1" id="Layer_1" xmlns="http://www.w3.org/2000/svg" xmlns:xlink="http://www.w3.org/1999/xlink" x="0px" y="0px"
	 viewBox="0 0 251.7 242.3" style="enable-background:new 0 0 251.7 242.3;" xml:space="preserve">
<style type="text/css">
	.st0{fill:none;stroke:#FFFFFF;stroke-width:4;stroke-miterlimit:10;}
	.st1{fill:none;stroke:#FFFFFF;stroke-width:4;stroke-linecap:round;stroke-miterlimit:10;}
</style>
<path id="XMLID_11_" class="st0" d="M125.8,2C39.5,2-6.1,88.4,3.2,144.3c6.7,40.3,56.3,44,56.3,44s-9.3,52,66.3,52s66.3-52,66.3-52
	s49.7-3.7,56.3-44C257.8,88.4,212.2,2,125.8,2z"/>
<path id="XMLID_4_" class="st0" d="M125.8,240.3"/>
<path id="XMLID_2_" class="st0" d="M59.5,188.3c0,0,9.9-18.3,66.3-18.3s67.4,18.3,67.4,18.3"/>
<circle id="XMLID_3_" class="st0" cx="126.4" cy="89.6" r="51.7"/>
<path id="XMLID_8_" class="st0" d="M9.5,161.4c17.1,0.7,31.9-19.7,32.9-45.5c0.9-23.3-9.6-43-24.2-47.2"/>
<path id="XMLID_7_" class="st0" d="M242.4,161.4c-17.1,0.7-31.9-19.7-32.9-45.5c-0.9-23.3,9.6-43,24.2-47.2"/>
<line id="XMLID_6_" class="st1" x1="108.4" y1="212.3" x2="108.4" y2="192.3"/>
<line id="XMLID_9_" class="st1" x1="144.4" y1="212.3" x2="144.4" y2="192.3"/>
</svg>
